<?xml version="1.0" encoding="UTF-8"?>
<svg xmlns="http://www.w3.org/2000/svg" viewBox="0 0 224.94 224.94">
  <defs>
    <style>
      .cls-1 {
        fill: #fff;
        stroke-width: 0px;
      }
    </style>
  </defs>
  <g>
    <path class="cls-1" d="M201.45,85.39l-82.23-53.34c-3.96-2.57-9.1-2.57-13.05,0L23.93,85.39c-4.62,3-7.38,8.11-7.38,13.58
      v52.19c0,5.47,2.77,10.58,7.38,13.58l82.23,53.34c1.98,1.28,4.24,1.93,6.53,1.93c2.29,0,4.55-0.64,6.53-1.93l82.23-53.34
      c4.62-3,7.38-8.11,7.38-13.58V98.97C208.83,93.5,206.06,88.39,201.45,85.39z M192.23,151.16c0,1.82-0.92,3.53-2.46,4.53
      l-82.23,53.34c-0.66,0.43-1.42,0.66-2.2,0.66c-0.77,0-1.53-0.22-2.19-0.66l-82.23-53.34c-1.54-1-2.46-2.71-2.46-4.53V98.97
      c0-1.82,0.92-3.53,2.46-4.53l82.23-53.34c1.32-0.86,3.05-0.86,4.37,0l82.23,53.34c1.54,1,2.46,2.71,2.46,4.53V151.16z"/>
    <path class="cls-1" d="M124.67,97.16l-12.04-7.81v-7.95c0-0.96-0.76-1.73-1.71-1.73h-9.37c-0.95,0-1.71,0.77-1.71,1.73
      v7.95l-12.04,7.81c-0.77,0.5-1.02,1.54-0.56,2.34l4.9,8.48c0.27,0.47,0.77,0.76,1.3,0.79c0.04,0,0.08,0,0.12,0
      c0.49,0,0.96-0.23,1.26-0.63l7.46-9.88l7.46,9.88c0.31,0.41,0.78,0.63,1.27,0.63c0.04,0,0.08,0,0.12,0
      c0.53-0.03,1.03-0.32,1.3-0.79l4.89-8.48C125.69,98.7,125.44,97.66,124.67,97.16z"/>
    <path class="cls-1" d="M164.16,151.25l-4.3-9.64c-0.27-0.61-0.85-1.01-1.51-1.06c-0.66-0.04-1.29,0.3-1.63,0.87
      l-13.97,23.31c-0.35,0.58-0.34,1.31,0.01,1.88c0.35,0.58,0.98,0.92,1.66,0.89c0.06,0,6.55-0.32,14.35-3.87
      c7.8-3.55,11.8-9.1,12.08-9.51c0.36-0.55,0.39-1.27,0.08-1.86C164.9,151.68,164.45,151.38,164.16,151.25z"/>
    <path class="cls-1" d="M54.09,164.63l-13.97-23.31c-0.34-0.57-0.96-0.91-1.63-0.87c-0.66,0.05-1.24,0.45-1.51,1.06
      l-4.3,9.64c-0.29,0.64-0.19,1.38,0.25,1.93c0.44,0.54,1.16,0.76,1.81,0.56c0.12-0.04,12.18-3.91,19.87,11.89
      c0.33,0.68,1.02,1.1,1.77,1.05c0.75-0.05,1.38-0.56,1.62-1.28C57.99,165.3,58.04,165.3,54.09,164.63z"/>
    <path class="cls-1" d="M114.94,137.91l-1.16-4.21c-0.76-2.79-3.3-4.74-6.19-4.74h-2.75c-2.89,0-5.42,1.95-6.19,4.74
      l-1.16,4.21c-0.7,2.58,0.02,5.3,1.92,7.2l4.99,4.99c0.44,0.44,1.03,0.66,1.61,0.66c0.58,0,1.16-0.22,1.61-0.66l4.99-4.99
      C114.91,143.2,115.64,140.48,114.94,137.91z"/>
  </g>
</svg>