<?xml version="1.0" encoding="UTF-8"?>
<svg id="Capa_2" data-name="Capa 2" xmlns="http://www.w3.org/2000/svg" viewBox="0 0 71.31 84.9">
  <defs>
    <style>
      .cls-1 {
        stroke-width: 0px;
      }
    </style>
  </defs>
  <g id="Capa_1-2" data-name="Capa 1">
    <path class="cls-1" d="m29.51,12.09c-.73-1.3-1.73-2-3.06-2.15-2.49-.29-4.06,1.89-3.76,4.18.2,1.52.99,2.75,2.23,3.62,1.61,1.13,3.26,2.22,4.94,3.24,6.18,3.76,10.99,8.87,14.98,14.85,3.74,5.6,7.47,11.21,11.4,16.66,3.27,4.53,6.83,8.84,10.27,13.24.65.83,1.31,1.66,1.97,2.49-.03.05-.06.1-.1.14l-10.34-4.56s-.07.07-.11.1c4.46,7,8.92,14,13.37,20.98-2.29-.03-5.87-1.42-8.06-3.21-.65-.53-1.34-.91-2.16-1.09-4-.93-7.22-3.13-9.74-6.3-2.47-3.1-4.8-6.31-7.17-9.48-.51-.69-1.11-1.15-1.93-1.42-1.02-.33-2.01-.8-3.07-1.23.46,3.41-.15,6.54-1.86,9.51-1.19-.78-2.33-1.53-3.53-2.32-.74,1.7-1.5,3.42-2.23,5.15-.25.58-.41,1.2-.65,1.79-.25.62.06.97.55,1.17.39.16.83.24,1.25.27.7.04,1.4.01,2.1.01,1.88,0,3.67,1.4,4.12,3.2.02.1.02.2.04.34-1.29-.9-2.22-2.27-3.93-2.54-.08.21-.15.39-.21.58-.39,1.11-1.16,1.56-2.33,1.45-1.47-.14-2.94-.28-4.42-.29-1,0-1.99.27-2.99.33-1,.06-2.01.07-3,0-.77-.05-1.31.17-1.68.85-.13.25-.32.46-.53.78.03-1.28.32-2.34,1.2-3.18-1.17-.71-2.52-.37-3.39.86-.56.79-1.06,1.61-1.59,2.41-.06,0-.11-.01-.17-.02.16-.83.31-1.66.48-2.51-1.34,0-2.75-.04-4.15.03-.31.02-.62.4-.9.65-.17.15-.29.37-.48.63-.23-1.47.33-2.6,1.16-3.64-1.36-.45-2.66.04-3.67,1.38-.51.67-.97,1.37-1.44,2.05-.29-1.83,1.39-4.12,3.42-4.45.83-.14,1.71.03,2.57.03,1.13,0,2.26.03,3.38-.07.93-.08,1.63-.62,2.04-1.49,1.39-2.97,2.77-5.94,4.17-8.9.21-.43.13-.76-.1-1.14-2.62-4.34-4.85-8.89-6.83-13.55-.36-.85-.84-1.49-1.54-2.06-1-.82-1.93-1.73-2.9-2.59-.21-.19-.45-.36-.69-.5-5.29-2.97-8.6-7.46-10.04-13.3-.8-3.26-.36-6.43,1.54-9.26.66-.98.73-2,.85-3.07.48-4.41,1.2-8.77,3.09-12.84.77-1.67,1.75-3.21,3.01-4.55C10.71,1.41,12.92.23,15.61.05c2.68-.19,5.29.15,7.73,1.34,1.01.49,1.73,1.28,2.18,2.33.1.22.35.44.59.53,2.53,1,4.06,3.62,3.66,6.32-.07.46-.15.92-.26,1.52Zm-17.92,2.62c-.45.5-.9,1-1.34,1.51-2.04,2.36-3.79,4.9-4.92,7.83-.96,2.5-1.56,5.08-1.05,7.76.98,5.17,3.49,9.61,6.93,13.52,2.61,2.97,5.75,5.33,9.09,7.42,1.6,1,3.25,1.94,4.88,2.9-1.77-3.97-2.57-6.31-2.62-7.94.9,1.87,1.77,3.74,2.69,5.59,2.33,4.68,4.81,9.29,7.81,13.59.99,1.42,2.32,2.4,3.82,3.24.74-1.27,1.11-2.6,1.32-3.99.35-2.28-.02-4.5-.56-6.71-.24-1.01-.54-2-.81-3,.07-.03.13-.05.2-.08.58,1.37,1.14,2.74,1.75,4.1.12.26.34.56.59.67,1.69.74,3.4,1.42,5.09,2.16,1.11.48,2.2,1.03,3.29,1.55-.01.03-.03.06-.04.09-.89-.22-1.77-.43-2.78-.68,2.39,3.14,4.7,6.21,7.05,9.24,1.95,2.53,4.37,4.44,7.42,5.49.37.13.75.23,1.21.37-.06-.17-.07-.24-.1-.28-2.23-2.69-4.52-5.33-6.69-8.07-3.74-4.74-7.41-9.54-11.12-14.3-.27-.34-.62-.66-1-.85-6.13-3.08-11.89-6.75-17.13-11.19-2.71-2.29-5.2-4.8-7.13-7.81-1.92-3.01-3.29-6.19-2.94-9.88.5-5.21,4.93-7.9,9.26-7.47.77.08,1.52.24,2.41.39-.54-.36-.99-.65-1.42-.95-1.49-1.02-2.57-2.36-2.99-4.14-.45-1.91-.01-3.58,1.5-4.9.21-.19.47-.32.8-.54h-3.76c2.88-1.25,5.71-1.17,8.49.31.17-1.82-1.13-3.8-2.8-4.27-.18-.05-.46.05-.62.17-.4.31-.75.67-1.13,1.01-.02-.03-.05-.06-.07-.08.21-.38.43-.77.71-1.26h-4.02c.12.83-.13,1.57-.93,2.05-.72.43-1.62.4-2.26-.09-.96-.73-1.08-1.69-.62-2.78-1.45-.28-2.84-.27-4.22.18.93-.78,2.03-1.21,3.21-1.18,1.24.03,2.49.23,3.72.42,1.61.25,3.21.68,4.87.23-.45-1.04-1.25-1.72-2.29-2-1.52-.4-3.06-.82-4.61-.96-2.95-.27-5.61.53-7.76,2.69-1.88,1.89-3.06,4.2-3.97,6.66-1.02,2.76-1.58,5.64-1.95,8.55-.29,2.23-.41,4.48-.61,6.72.07.02.13.04.2.06,1.37-4.63,3.93-8.39,7.97-11.09Zm51.15,49.99c-.2-.16-.4-.32-.59-.49-2.54-2.15-5.09-4.29-7.62-6.46-2.67-2.29-5.37-4.54-7.95-6.93-2.9-2.68-5.68-5.48-8.51-8.23-.17-.17-.37-.34-.59-.43-3.13-1.22-5.73-3.18-7.95-5.67-.43-.49-.83-1.01-1.24-1.51.6.32,1.09.72,1.58,1.13,2.11,1.74,4.26,3.42,6.74,4.61,2.04.98,4.16,1.71,6.43,1.78-.68.36-2.17.46-3.4.21,1.56,2.17,22.05,20.32,24.46,21.65-.43-.54-.82-1.04-1.21-1.54-5.17-6.44-10.11-13.05-14.59-19.99-.16-.24-.47-.44-.75-.55-1.51-.56-3.08-1-4.56-1.63-2.6-1.11-4.77-2.83-6.71-4.87,1.74.98,3.46,2.01,5.2,2.99,1.75.99,3.6,1.76,5.66,2.32-.47-.71-.86-1.31-1.27-1.91-2.54-3.71-5.03-7.46-8.24-10.66-2.37-2.37-4.9-4.51-7.87-6.08-2.62-1.38-5.37-2.23-8.39-1.77-3.3.49-5.79,3.41-5.9,6.75-.08,2.43.53,4.67,1.65,6.79,2.15,4.1,5.3,7.35,8.82,10.26,4.59,3.8,9.6,6.95,14.85,9.75,1.64.87,3.3,1.69,4.95,2.54-.02-.19-.09-.27-.18-.34-2.27-1.73-4.58-3.41-6.8-5.21-3.31-2.68-6.47-5.52-9.2-8.82-.62-.74-1.4-1.38-2.2-1.94-2.39-1.7-4.66-3.52-6.37-5.94-.65-.92-1.23-1.88-1.85-2.83,2.32,2.4,4.62,4.77,7.27,6.79,2.67,2.04,5.53,3.64,8.88,4.13-1.56.49-3.06-.07-4.62-.37,9.22,9.56,19.76,17.24,32.06,22.46Zm-18.55-7.67c.24.33.37.52.51.71,3.59,4.62,7.17,9.25,10.79,13.86,2.49,3.17,4.97,6.34,8.01,9.03,1.59,1.4,3.35,2.37,5.51,2.71-.1-.12-.18-.21-.25-.3-1.83-2.14-3.75-4.21-5.47-6.44-3.72-4.84-7.35-9.74-10.96-14.65-.78-1.06-1.65-1.86-2.87-2.39-1.74-.75-3.42-1.63-5.27-2.53Zm-17.33,11.39c1.02-1.63,1.51-3.33,1.6-5.17.06-1.11-.19-2.09-.78-3.03-.51-.82-.9-1.7-1.39-2.53-.16-.28-.43-.54-.71-.71-2.76-1.69-5.54-3.36-8.31-5.03-.13-.08-.27-.15-.4-.22,1.96,4.87,4.28,9.49,7.09,13.86.74,1.15,1.74,2.05,2.88,2.84Zm-5.75,8.05c1.31.18,2.52.35,3.73.51,1.35.17,2.32-.33,2.85-1.61.07-.17.17-.33.23-.5,1.04-2.8,2.08-5.59,3.11-8.39.06-.16.12-.39.05-.51-.49-.86-1.01-1.69-1.59-2.66-.22,2.66-1.27,5.49-2.39,6.55-.54-.38-1.08-.77-1.66-1.18-1.43,2.57-2.84,5.11-4.32,7.79Zm10.81-9.32c-.38,1.02-.74,2.04-1.13,3.04-.73,1.87-1.43,3.74-2.22,5.59-.63,1.48-1.74,2.45-3.33,2.85-.63.16-1.26.36-1.86.61-.64.27-1.25.63-1.88.94.03.1.05.19.08.29.97-.07,1.96-.04,2.9-.23,2.13-.41,4.26-.65,6.43-.54.63.03,1.27.12,1.9.11.75-.02.96-.27,1.02-1.1-.55,0-1.11.04-1.65,0-.95-.08-1.98-.2-2.25-1.33-.13-.56-.11-1.25.09-1.79.71-1.83,1.42-3.68,2.34-5.41.63-1.19.64-2.09-.36-2.99-.01-.01-.03-.02-.08-.04Zm-23.39-23.33c-4.21-5.6-5.85-12.01-6.04-18.89-1.31,2.12-1.64,4.44-1.26,6.78.81,4.98,3.27,9.03,7.3,12.11Zm14.9,22.93c-.1.2-.19.38-.28.56-1.26,2.64-2.49,5.3-3.81,7.92-.36.71-.91,1.36-1.51,1.89-.89.78-2.07.79-3.2.88-1.03.08-2.01.28-2.46,1.47.19.05.36.13.52.12,1.29-.03,2.59-.06,3.88-.14.27-.02.53-.27.79-.42.6-.34,1.17-.74,1.79-1.03.85-.39,1.64.1,2.45.28.89.19,1.68.1,2.27-.31-1.24-.24-2.52-.49-3.91-.77.14-.47.21-.9.39-1.27.52-1.07,1.07-2.12,1.64-3.16.87-1.59,1.75-3.17,2.61-4.73-.42-.46-.78-.87-1.17-1.3Zm41.54,10.56c.05-.04.11-.07.16-.11-.02-.07-.04-.14-.08-.2-2.79-4.45-5.57-8.89-8.36-13.33-.56-.89-2.4-2.03-3.53-2.19,3.95,5.3,7.88,10.56,11.81,15.83ZM19.81,5.63c0-.68-.23-.88-1-.88-.62,0-.97.31-.98.84,0,.55.46,1.01,1.02,1,.58-.01.96-.4.96-.96Z"/>
  </g>
</svg>