<?xml version="1.0" encoding="UTF-8"?>
<svg xmlns="http://www.w3.org/2000/svg" viewBox="0 0 224.94 224.94">
  <defs>
    <style>
      .cls-1 {
        fill: #fff;
        stroke-width: 0px;
      }
    </style>
  </defs>
  <g>
    <path class="cls-1" d="M193.68,110.97h-20.49V60.73c0-5.3-4.31-9.61-9.61-9.61h-9.61v-9.61c0-5.3-4.31-9.61-9.61-9.61H80.58
      c-5.3,0-9.61,4.31-9.61,9.61v9.61h-9.61c-5.3,0-9.61,4.31-9.61,9.61v50.24H31.27c-5.3,0-9.61,4.31-9.61,9.61v38.46
      c0,5.3,4.31,9.61,9.61,9.61h5.77c5.3,0,9.61-4.31,9.61-9.61v-28.85h11.54v42.31c0,5.3,4.31,9.61,9.61,9.61h118.35
      c5.3,0,9.61-4.31,9.61-9.61v-42.31h11.54v28.85c0,5.3,4.31,9.61,9.61,9.61h5.77c5.3,0,9.61-4.31,9.61-9.61v-38.46
      C203.29,115.28,198.98,110.97,193.68,110.97z M70.96,51.12h82.81v59.85H70.96V51.12z M70.96,120.58h82.81v9.61H70.96V120.58z
      M119.04,140.2c5.3,0,9.61,4.31,9.61,9.61c0,5.3-4.31,9.61-9.61,9.61h-13.46c-5.3,0-9.61-4.31-9.61-9.61
      c0-5.3,4.31-9.61,9.61-9.61H119.04z"/>
    <path class="cls-1" d="M89.19,59.73l-7.59,7.59c-0.69,0.69-0.69,1.81,0,2.5l7.59,7.59c0.34,0.34,0.79,0.52,1.25,0.52
      c0.46,0,0.91-0.17,1.25-0.52c0.69-0.69,0.69-1.81,0-2.5l-6.77-6.77l6.77-6.77c0.69-0.69,0.69-1.81,0-2.5
      C91,59.04,89.88,59.04,89.19,59.73z"/>
    <path class="cls-1" d="M143.34,59.73c-0.69-0.69-1.81-0.69-2.5,0c-0.69,0.69-0.69,1.81,0,2.5l6.77,6.77l-6.77,6.77
      c-0.69,0.69-0.69,1.81,0,2.5c0.34,0.34,0.79,0.52,1.25,0.52c0.46,0,0.91-0.17,1.25-0.52l7.59-7.59c0.69-0.69,0.69-1.81,0-2.5
      L143.34,59.73z"/>
    <path class="cls-1" d="M117.61,57.92c-0.91-0.36-1.94,0.08-2.3,0.99l-13.46,33.65c-0.36,0.91,0.08,1.94,0.99,2.3
      c0.22,0.09,0.44,0.13,0.66,0.13c0.7,0,1.36-0.43,1.64-1.12l13.46-33.65C118.96,59.31,118.52,58.28,117.61,57.92z"/>
  </g>
</svg>