<?xml version="1.0" encoding="UTF-8"?>
<svg id="Capa_2" data-name="Capa 2" xmlns="http://www.w3.org/2000/svg" viewBox="0 0 70.95 83.85">
  <defs>
    <style>
      .cls-1 {
        stroke-width: 0px;
      }
    </style>
  </defs>
  <g id="Capa_1-2" data-name="Capa 1">
    <g>
      <path class="cls-1" d="m40.72,20.57c-1.37.95-2.69,1.87-4.06,2.82,1.88.77,3.73,1.52,5.57,2.28,4.04,1.66,7.84,3.73,11.19,6.57,4.47,3.81,7.32,8.59,8.61,14.31.55,2.42.73,4.86.67,7.34,0,.21.23.5.44.63,2.83,1.79,5.17,4.06,6.5,7.17,2.28,5.31,1.61,10.26-2.13,14.72-2.94,3.51-6.88,5.38-11.18,6.53-5.35,1.43-10.68,1.12-15.99-.38-1.86-.52-3.78-.91-5.7-1.15-2.43-.3-4.73.2-6.85,1.73.23-1.97.68-3.78,1.57-5.45,2.42-4.56,6.14-7.63,10.95-9.41,1.36-.5,2.77-.9,4.15-1.44h-10.57c.31-1.48,1.84-2.48,3.38-2.42-.48.43-.92.83-1.45,1.3.25.02.4.04.55.04,3.59,0,7.18.07,10.77-.01,2.79-.06,5.55-.48,8.21-1.42,3.31-1.16,5.19-3.44,5.81-6.85.5-2.72.47-5.44.13-8.16-.51-4.11-1.87-7.9-4.23-11.32-2.47-3.59-5.79-6.24-9.49-8.44-3.42-2.04-7.18-3.34-10.82-4.91-1.08-.46-1.94-.46-2.99.03-2.37,1.09-4.89,1.73-7.48,2.13-.18.03-.4.18-.51.33-2.36,3.34-7.43,3.77-10.31.86-.06-.06-.14-.11-.17-.18-.42-.92-1.25-1.1-2.15-1.24-.97-.16-1.92-.45-2.91-.69-.65,4.4-.69,8.75,1.1,12.97,1.21,2.86,3.11,5.21,5.36,7.3,2.2,2.04,4.42,4.07,6.81,6.09-.09-1.82-.11-3.65-.28-5.47-.19-2.01-.53-4.01-.8-6.01-.02-.14,0-.27,0-.41l.17-.04c.29.95.58,1.89.87,2.84.79,2.58,1.32,5.21,1.2,7.93-.18,4.03-1.12,7.88-2.8,11.54-.64,1.4-1.63,2.42-3.08,2.98-1.18.45-1.87,1.32-2.14,2.54-.05.22-.07.44-.1.7h-1.03c-.08-1.44.76-3.47,2.48-4.1,1.61-.59,2.57-1.73,3.14-3.28.38-1.02.83-2.03,1.13-3.08.4-1.41.68-2.85.98-4.28.04-.18-.06-.45-.19-.58-.47-.47-.97-.89-1.52-1.38-.11.3-.2.56-.31.81-1.59,3.65-3.17,7.31-4.78,10.94-.25.56-.62,1.08-1,1.56-.82,1.04-2.05,1.16-3.25,1.28-.64.06-1.28.07-1.92.1-.15-1.22.59-2.26,2.07-2.84-.22.55-.43,1.05-.64,1.57,1.53.02,2.84-.28,3.51-1.81,1.75-4.03,3.5-8.06,5.27-12.08.17-.39-.02-.56-.26-.78-1.87-1.74-3.73-3.48-5.58-5.23-.26-.25-.48-.54-.74-.84.26,1.18.58,2.31.76,3.47.67,4.19.35,8.29-1.2,12.27-.71,1.83-2,2.81-3.97,2.93-1.68.1-2.68,1.41-2.74,3.13,0,.06-.02.12-.04.23h-1.02c-.34-2.3,1.51-4.45,4.02-4.57,1.15-.06,1.92-.58,2.39-1.58.95-2,1.41-4.13,1.63-6.32.51-5.07-.82-9.74-3.05-14.23-1.58-3.18-2.13-6.59-2.01-10.11.05-1.51.23-3.01.35-4.58-3.26-1.15-6.38-2.73-9.02-4.98,1.92-3.11,3.81-6.19,5.73-9.3-.96-1.56-1.69-3.27-1.91-5.14-.22-1.82-.23-3.63.53-5.37C4.56.21,4.82,0,5.38,0c2.26.05,4.1,1.05,5.75,2.48.77.67,1.49,1.38,2.22,2.09.25.24.44.32.81.22,4.04-1.15,8.09-1.14,12.13-.02.39.11.62.04.92-.22,1.29-1.13,2.56-2.29,3.94-3.31C32.3.37,33.71.08,35.17,0c.58-.03.85.23,1.04.69.54,1.35.73,2.76.63,4.2-.14,2.14-.76,4.13-1.83,5.99-.08.14-.12.41-.04.53,1.78,2.89,3.58,5.76,5.38,8.64.09.14.19.27.38.53ZM7.12,11.19c-1.69,2.73-3.34,5.41-5,8.09,1.54-1.12,3.01-2.29,4.46-3.48,1.85-1.52,3.79-2.85,6.18-3.4,3.39-.78,6.1,1.07,6.42,4.51.16,1.75.11,3.52.14,5.28.01.55,0,1.11,0,1.64h1.78c0-.24,0-.42,0-.61.07-2.24-.02-4.49.24-6.7.37-3.18,2.72-4.48,5.38-4.26,1.78.15,3.42.81,4.86,1.86,1.54,1.12,3.02,2.32,4.52,3.5.8.62,1.58,1.26,2.37,1.89l.06-.06c-1.69-2.74-3.39-5.47-5.1-8.23,1.11-1.68,1.91-3.53,2.13-5.59.14-1.33.23-2.68-.27-3.99-.12-.31-.22-.46-.61-.41-1.04.14-2.02.41-2.91.98-1.5.95-2.84,2.09-3.98,3.44-.37.44-.71.53-1.26.37-2.68-.8-5.43-1.15-8.22-.8-1.51.19-2.99.56-4.49.87-.39.08-.69.06-.99-.27-.6-.66-1.23-1.29-1.89-1.9-1.15-1.05-2.35-2.03-3.9-2.45-1.73-.47-1.76-.46-2.08,1.28-.05.26-.09.53-.1.8-.14,2.85.67,5.42,2.24,7.64Zm43.4,71.44c2.76-.11,5.41-.63,7.98-1.6.21-.08.46-.4.46-.62,0-1.03.08-2.09-.12-3.09-1.01-5.01-4.11-8.24-8.78-10.09-.5-.2-.98-.24-1.5-.1-.7.19-1.41.32-2.11.5-1.06.27-2.12.55-3.22.84,5.21,3.35,7.58,8.03,7.29,14.16ZM22.14,20.74c1.36.13,2.38.66,3.24,1.53.89.9,1.22,1.99,1.02,3.29,4.34-.75,8.28-2.28,11.88-4.72-.06-.08-.08-.14-.12-.18-2.02-1.59-4.03-3.19-6.06-4.77-1.6-1.24-3.31-2.25-5.38-2.5-2.02-.25-3.7.72-4.12,2.71-.31,1.5-.31,3.06-.45,4.64Zm-19.95-.03c3.72,2.47,7.66,4.07,11.99,4.88-.3-1.33.12-2.36.95-3.26.82-.9,1.82-1.46,3.19-1.57-.13-1.52-.14-3-.39-4.43-.37-2.08-2-3.14-4.08-2.91-1.39.15-2.7.56-3.81,1.37-2.62,1.91-5.18,3.92-7.83,5.93Zm47.09,61.99c.22-1.77.12-3.41-.33-5.02-1.05-3.81-3.32-6.65-6.83-8.48-.19-.1-.46-.2-.63-.13-1.6.68-3.18,1.4-4.87,2.15,1.46,1.32,2.47,2.72,3.24,4.3.88,1.8,1.18,3.72,1.34,5.68.03.32.11.46.45.52,1.24.21,2.46.54,3.71.7,1.28.17,2.59.19,3.91.28Zm2.31-16.06c5.47,2.81,8.68,7.19,8.6,13.7,1.84-.77,3.44-1.9,5.01-3.15,1.11-.88,1.5-1.87,1.18-3.19-.14-.6-.31-1.21-.57-1.76-1.76-3.69-4.79-5.93-8.53-7.32-.12-.05-.29-.03-.41.01-1.78.57-3.56,1.15-5.26,1.7Zm6.79-2.53c4.6,2.05,8.13,5,9.27,10.15.86-1.31,1.58-2.74,1.83-4.34.16-1.03.4-2.16.16-3.12-1.02-4-4.81-5.76-8-5.87-.17,0-.42.11-.49.25-.68,1.19-1.59,2.15-2.76,2.94Zm-18.38,17.16c-.13-3.75-1.49-6.82-4.31-9.26-2.99,2.33-5.29,5.11-6.35,8.92,3.64-1.36,7.1-.57,10.66.34ZM18.08,21.89c-.35.12-.65.19-.93.32-1.7.78-2.33,2.36-1.54,3.9.95,1.86,2.62,2.59,4.59,2.61,2.09.02,3.81-.83,4.79-2.74.9-1.74-.64-3.99-2.56-3.99,0,1.01,0,2.03,0,3.04,0,1.33-1.06,1.99-1.8,2.84-.04.05-.16.01-.24.03-.49.13-.73-.22-1.03-.5-.94-.88-1.52-1.86-1.31-3.23.11-.72.02-1.47.02-2.29Zm50.77,40.96c-1.2-3.16-3.42-5.44-6.15-7.3-.29,1.45-.57,2.82-.84,4.21,2.71.15,5,1.26,7,3.09ZM19.04,25.07c.45.58.8,1.04,1.2,1.57.42-.55.77-1.01,1.19-1.57h-2.39Z"/>
      <path class="cls-1" d="m30.36,57.41c2.73,1.89,5.59,3.6,8.85,4.55.06.02.12.05.18.05,1.67,0,3.35,0,5.09,0-1.15-.9-2.23-1.63-3.18-2.51-2.69-2.51-3.94-5.65-3.65-9.31.29-3.57,1.77-6.53,5.01-8.36,2.66-1.51,6.69-1.21,8.86.63-1-.13-1.98-.26-2.95-.4-5.31-.77-8.63,2.41-9.57,6.65-1.05,4.74.94,9.11,5.4,11.86,1.29.8,2.7,1.39,4.15,2.13-1.16.11-2.29.27-3.42.31-3.55.11-7.09.21-10.64.22-2.29,0-3.65,1.59-4.2,3.02-.06.15-.11.31-.16.48h-1.13c.35-1.6,1.18-2.82,2.46-3.76,1.32-.97,2.87-.88,4.35-.95-2.05-1.19-4.11-2.38-6.26-3.63-.92,1.59-1.91,3.26-2.87,4.94-.61,1.08-1.23,2.16-1.74,3.29-.71,1.58-1.91,2.26-3.58,2.25-.41,0-.83,0-1.24,0-.13-1.53.94-2.64,2.06-2.85-.23.53-.46,1.04-.69,1.57,1.1.2,1.72-.26,2.21-1.15,1.74-3.1,3.5-6.19,5.31-9.24,1.14-1.92,2.42-3.75,3.59-5.66,1.78-2.91,2.21-5.93.84-9.17-.93-2.2-1.41-4.54-1.39-6.94.02-1.98.46-3.87,1.34-5.65.06,0,.12.01.17.02-.07,1.18-.1,2.37-.22,3.54-.3,2.91.04,5.74,1.1,8.47.63,1.64,1.09,3.29.95,5.07-.13,1.77-.73,3.39-1.61,4.9-1.11,1.89-2.27,3.74-3.43,5.63Z"/>
      <path class="cls-1" d="m7.8,66.88c.23-1.84.7-2.44,2.01-2.7-.27.8-.54,1.64-.85,2.47-.04.1-.23.2-.36.21-.26.03-.53,0-.8,0Z"/>
      <path class="cls-1" d="m31.43,66.75c.47-1.71,1.33-2.45,2.54-2.32-.42.68-.85,1.41-1.31,2.1-.08.13-.32.18-.49.21-.22.04-.45,0-.74,0Z"/>
      <path class="cls-1" d="m18.82,68.87h-.93c-.14-1.27.45-2.06,1.94-2.58-.33.84-.65,1.67-1.01,2.58Z"/>
      <path class="cls-1" d="m19.04,25.07h2.39c-.42.56-.77,1.02-1.19,1.57-.41-.53-.76-.99-1.2-1.57Z"/>
      <path class="cls-1" d="m27.52,16.64c-.39,2.41-1.62,3.11-3.51,2.04.55-1.77,1.72-2.43,3.51-2.04Z"/>
      <path class="cls-1" d="m13.02,16.65c1.79-.37,2.75.15,3.54,1.95-1.65,1.26-3.17.43-3.54-1.95Z"/>
    </g>
  </g>
</svg>