<?xml version="1.0" encoding="UTF-8"?>
<svg id="Capa_2" data-name="Capa 2" xmlns="http://www.w3.org/2000/svg" viewBox="0 0 258.91 415.82">
  <defs>
    <style>
      .cls-1 {
        fill: #fff;
        stroke-width: 0px;
      }
    </style>
  </defs>
  <g id="Capa_1-2" data-name="Capa 1">
    <path class="cls-1" d="m81.23,405.67c9.03-13.41,20.45-22.04,33.35-29-1.96-1.59-4.75-2.76-4.91-4.23-.26-2.4.7-5.28,2-7.45,5.75-9.63,14.89-12.78,25.53-12.19,9.1.5,18.18,1.43,28.1,2.24-17.43-19.95-28.75-44.19-52.81-58.24-2.34,7.7-4.72,15.19-6.88,22.73-3.42,11.95-6.12,24.15-10.19,35.87-5.13,14.79-12.72,19.29-28.5,18.71-13.12-.48-26.24-.99-39.36-1.53-.96-.04-1.9-.36-3.41-.66,2.09-6.63,6-11.5,11.29-15.39.79-.58,1.72-1.14,2.66-1.33,11.83-2.49,16.19-11.22,17.88-21.83,2.76-17.36,5.33-34.75,7.7-52.17.99-7.24,1.69-14.58,1.69-21.87,0-3.55-1.13-7.62-3.09-10.54-7.36-10.93-14.7-21.74-16.78-35.18-2.28-14.72-.58-28.88,6-42.25,3.73-7.59,8.24-14.8,12.22-22.27,6.21-11.67,3.62-16.5-9.47-17.45-7.78-.57-15.6-.76-23.41-.98-10.15-.28-18.37-3.99-23.87-12.87-2.01-3.25-4.23-6.37-6.22-9.63-1.43-2.33-.8-3.57,1.89-4.84,10.5-4.96,20.93-10.07,31.11-15.64,3.2-1.75,6.47-4.62,8.08-7.81,7.77-15.27,21.72-21.93,36.72-27.02,4.38-1.49,6.03-3.7,7.31-8.01,3.58-12.06,7.93-23.9,12.11-35.78.64-1.83,1.97-3.41,3.36-5.74,5.54,4.92,5.93,11.87,8.63,17.61,5.32-7.03,10.57-13.98,15.82-20.93.59.09,1.19.19,1.78.28,1.62,5.58,3.59,11.09,4.8,16.76,3.07,14.38,4.66,28.86,2.31,43.59-.39,2.45.22,5.41,1.29,7.7,11.04,23.5,15.96,48.17,14.4,74.08-.95,15.79,6.82,26.47,19.53,34.45,23.49,14.75,44.67,31.91,58.89,56.36,8.62,14.83,13.99,30.82,16.62,47.72,2.39,15.39,1.77,30.82.33,46.28-.25,2.69.6,5.9,1.99,8.25,6.56,11.13,12.47,22.24,10.95,35.94-1.39,12.53-8.03,21.68-17.58,28.93-21,15.94-44.98,17.73-69.86,13.52-16.85-2.85-33.46-7.25-50.38-9.45-10.38-1.35-21.14.12-31.72.4-2.27.06-4.54.47-7.89.85Zm154.14-61.88l.61.51c1.18-3.28,2.71-6.49,3.48-9.87,4.07-17.73,4.13-35.58,1.04-53.47-5.38-31.08-19.11-57.62-43.69-77.76-11.16-9.14-23.2-17.22-35-25.56-7.42-5.24-12.09-12.16-14.33-20.86-.43-1.65-.91-3.29-1.16-4.21-5.15,6.75-9.8,14.03-15.63,20.21-8.66,9.17-18.23,17.48-27.26,26.3-12.28,12.01-16.21,26.45-13.01,43.32,1.67,8.77,3.32,17.84,2.84,26.66-1.29,23.87-3.37,47.72-5.88,71.49-1.1,10.35-6.21,18.66-17.76,20.6-4.18.7-6.17,3.27-7.25,7.06,12.18,2.9,22.59.13,27.1-11.42,2.88-7.4,5.24-15.04,7.22-22.74,5.57-21.72,11.39-43.35,21.87-63.33,2.24-4.28,2.23-8.36,1.79-12.95-.76-7.89-1.72-15.95-.94-23.77,1.97-19.81,15.25-35.35,20.75-53.87,7.18,5.19,13.82,10.1,20.57,14.85,16.89,11.88,33.69,23.89,46.48,40.46,21.03,27.25,28.89,58.55,28.18,92.46-.11,5.29-.02,10.58-.02,15.87ZM107.07,118.44c4.61-7.16,4.26-15.11-.9-21.79-6.1-7.88-18.6-13.46-25.72-10.78-9.62,3.62-19.19,7.47-28.43,11.94-10,4.84-19.58,10.57-29.43,15.74-.96.51-2.52-.12-3.8-.23.67-.98,1.11-2.31,2.03-2.89,5.89-3.75,11.79-7.5,17.87-10.93,5.47-3.08,10.04-6.74,13.15-12.45,3.22-5.91,8.15-9.97,15.37-10.52,14.66-1.12,27.69,3.3,38.8,12.51,8.39,6.95,12.79,20.12,5.69,32.95-8.08,14.59-18.75,26.99-29.42,39.51-11.89,13.95-21.87,28.52-23.23,47.9-1.8,25.77,9.71,44.1,29.8,58.58-.07-6.47-.43-12.61-5.41-17.6-1.93-1.94-3.27-4.63-4.38-7.2-10.74-24.72-5.97-49.57,12.56-69.02,9.86-10.34,19.78-20.75,28.39-32.11,9.7-12.79,11.29-27.49,4.79-42.45-3.04-6.99-6.6-13.78-10.38-20.41-5.59-9.83-6.14-19.76-1.86-30.12,3.49-8.44,7.08-16.84,10.22-25.4,1.4-3.81,1.81-7.99,2.67-12-14.13,15.03-29.88,36.71-32.25,52.7-1.37-2.45-2.75-4.91-4.39-7.83-1.63.32-3.93.57-6.12,1.22-13.7,4.08-27.08,8.88-34.59,22.35-3.39,6.09-8.17,10.34-14.07,13.67-7.37,4.15-14.69,8.39-22.05,12.55-2.53,1.43-4.57,2.83-2.42,6.16,1.79,2.77,2.9,6.06,7.45,4.34,3.55-1.35,7.27-2.7,11-3.06,15.19-1.44,30.4-2.96,45.64-3.56,11.73-.46,23.08,2.22,33.41,8.19Zm136.86,221.33c-.42.34-.61.41-.67.55-.58,1.36-1.14,2.74-1.72,4.1-5.3,12.49-12.45,23.14-26.79,26.44-4.35,1-8.75,2.47-13.14,2.54-13.6.23-27.28.74-40.8-.43-18.24-1.58-35.08,1.24-50.33,11.55-6.04,4.08-11.74,8.66-18.07,13.37,8.08,0,14.95-.75,21.58.16,13.62,1.87,27.21,4.18,40.63,7.12,19.78,4.33,39.47,7.61,59.58,2.26,10.23-2.72,19.99-6.45,27.61-14.07,15.54-15.53,16.24-34.56,2.11-53.58Zm-14.76,9.31c.48-.29.96-.58,1.44-.86-.17-2.3.19-4.79-.59-6.86-4.36-11.61-7.61-23.94-13.84-34.49-10.52-17.79-26.68-27.96-48.19-27.39-12.82.34-23.48,9.12-24.39,20.02-.81,9.69,1.26,18.87,6.47,27.17,8.3,13.2,16.97,26.08,31.76,33.55-10.42,0-20.61-.75-30.82-1.25-7.43-.36-14.92-.91-22.32-.43-7.15.46-13.18,6.65-13.78,13.15,1.85-.17,3.62-.32,5.38-.5,11.85-1.21,23.68-3.11,35.55-3.46,14.6-.43,29.24.87,43.85.59,9.43-.18,18.5-2.76,26.97-9.73-2.08,0-3.04-.17-3.92.02-31.36,6.96-63.68-17.23-70.11-46.41-1.07-4.88-1.68-12.12,1.01-15.04,4.34-4.72,11.71-3.09,17.89-.96.63.22,1.24.47,1.84.74,10.33,4.66,19.02,11.52,26.37,20.06,6.07,7.06,11.75,14.44,17.94,21.38,3.47,3.88,7.62,7.16,11.47,10.7ZM131.17,69.61c-2.02,3.83-3.39,7.29-5.51,10.21-2.55,3.53-1.96,6.38-.07,9.98,12.12,23.02,9.54,44.42-7.82,63.96-7.29,8.2-14.97,16.06-22.71,23.84-20.24,20.36-21.32,45.33-9.17,69.06-.07-1.6,0-2.68-.19-3.72-4.06-21.15,3.23-38.06,18.99-52.06,7.45-6.62,14.59-13.61,21.66-20.65,13.77-13.71,21.25-29.83,19.14-49.79-1.85-17.51-6.96-34.02-14.33-50.83Zm11.07,119.34c-1.91,4.14-3.44,7.98-5.42,11.58-1.54,2.79-.84,4.52,1.48,6.3,11.19,8.61,22.34,17.27,33.48,25.94,15.74,12.24,30.57,25.55,39.15,43.9,6.73,14.39,11.79,29.56,17.6,44.38.62,1.59,1.27,3.18,1.9,4.77.52-.12,1.04-.23,1.56-.35-1.13-9.44-1.96-18.94-3.46-28.33-4.07-25.39-14.39-47.81-32.09-66.73-15.74-16.82-35.54-28.23-54.19-41.47Zm-86.99,36.86c-2.75-17.71-.03-34.51,9.87-49.27,7.56-11.28,16.95-21.32,25.33-32.06,5.14-6.58,9.92-13.43,15.69-21.3-30.18-12.57-58.67-7.69-87.26-.99,2.28,1.43,4.63,2.29,7.02,2.45,8.13.54,16.3.61,24.42,1.31,4.92.43,9.93,1.18,14.6,2.72,7.26,2.4,9.66,8.21,6.4,15.06-3.5,7.34-7.27,14.57-11.35,21.6-6.45,11.13-10.62,22.91-10.89,35.82-.18,8.68,1.5,17.06,6.18,24.66Zm77.38-16.43c-2.04,4.71-3.8,9.15-5.87,13.44-1.51,3.12-.9,5.51,1.18,8.18,8.45,10.82,19.78,18.23,30.88,25.76,14.27,9.68,29.07,18.56,43.58,27.88,3.23,2.07,6.2,4.53,9.29,6.82.48-.37.96-.73,1.44-1.1-5.14-8.41-9.77-17.2-15.53-25.16-10.75-14.86-25.2-25.9-39.85-36.65-8.29-6.08-16.35-12.46-25.11-19.16Zm92.64,143.89c-3.5-3.59-6.36-6.31-8.98-9.23-9.53-10.61-18.6-21.68-28.61-31.81-6.75-6.83-14.89-12.35-25.14-12.72-5.69-.21-7.18,1.67-6.19,7.2,3.83,21.42,16.61,35.59,36.18,44.05,10.33,4.46,21.04,4.9,32.73,2.51Zm-50.74-79.16c-18.07-11.61-35.32-23.79-51.04-38.72.23,8.64,1.39,16.94,2.19,25.28.25,2.6.09,5.54-.88,7.91-3.13,7.61-6.72,15.04-9.92,22.07,8.53,7.56,16.53,14.66,24.85,22.04-1.3-10.51-2.42-20.69,5.97-29.08,8.02-8.02,17.73-10.25,28.83-9.49Zm-104.43-16.83c-.24,1.71-.38,2.31-.41,2.91-1.19,24.73-3.82,49.25-8.85,73.54-2.64,12.72-7.6,22.71-21.1,26.76-3.17.95-5.66,4.15-8.46,6.32.29.57.59,1.15.88,1.72,3.95,0,7.9.02,11.85,0,14.42-.1,14.3-.14,18.63-13.98,7.77-24.82,15.75-49.57,23.45-74.41.58-1.88.34-4.88-.82-6.29-4.52-5.48-9.56-10.54-15.17-16.57Zm50.06-178.4c13.75-17.96,12.31-37.7,7.91-58.22-.52.74-1,1.21-1.2,1.77-3.41,9.28-6.77,18.58-10.17,27.86-3.68,10.05-3.66,19.62,3.47,28.58Zm-53.64,277.62c9.89-1.5,14.41-6.46,15.58-14.36,1.67-11.31,3.07-22.66,4.5-34,.74-5.82,1.31-11.66,1.96-17.49-.52-.13-1.04-.26-1.57-.39-6.74,21.8-13.48,43.6-20.48,66.23ZM89.72,50.32c.4.27.79.55,1.19.82,1.09-1.51,2.29-2.96,3.25-4.55,2.65-4.38,4.65-9.28,7.91-13.13,5.38-6.36,4.17-12.04-.73-18.73-5.8,11.58-9.52,23.3-11.61,35.58Zm-13.11,31.79c-11.13-1.53-16.81,1.13-21.75,9.77,7.18-3.23,13.83-6.21,21.75-9.77Z"/>
  </g>
</svg>