<?xml version="1.0" encoding="UTF-8"?>
<svg id="Capa_2" data-name="Capa 2" xmlns="http://www.w3.org/2000/svg" viewBox="0 0 224.94 368.28">
  <defs>
    <style>
      .cls-1 {
        fill: #fff;
        stroke-width: 0px;
      }
    </style>
  </defs>
  <g id="Capa_1-2" data-name="Capa 1">
    <g>
      <path class="cls-1" d="m80.95,82.12c1.19,3.09,2.2,5.88,3.36,8.6.37.87,1.01,1.83,1.79,2.29,20.13,11.83,40.05-4.57,41.77-21.29.52-5.03.08-10.17.08-15.24,4.43.95,4.56,4.71,4.79,8.09,1.13,16.73-9.25,34.91-30.38,36.68-6.37.53-12.35-1.24-18.16-3.99-1.59,7.13-5.79,12.82-9.95,19.02-1.67-3.28-3.34-6.27-4.74-9.4-1.38-3.07-2.47-6.27-3.51-8.94-5.29,1.22-10.55,3.08-15.92,3.55-12.85,1.13-27.36-8.57-31.38-22.88-1.69-6.02-2.12-12.07-.66-18.25.56-2.38,1.6-3.11,4.01-2.47,0,3.34.13,6.74-.02,10.13-.39,8.66,5.39,19.39,14.34,20.2,6.09.55,12.24-.71,18.45-1.2-1.89-2.84-3.8-5.67-5.67-8.53-2.61-3.97-5.18-7.97-7.16-11.1-.38,1.66-7.53,5.2-10,3.65-2.59-1.62-2.06-5.12-2.05-8.14,0-9.1-.29-18.21,5.36-26.11,4.81-6.72,11.01-10.87,19.27-11.58,9.02-.77,15.31,3.81,20.47,10.42,2.35-3.24,5.02-6.52,7.84-10.25,1.92,5.24,3.63,10.23,3.06,15.6-10.09-8.99-21.38-11.04-34.92-5.92-1.19-1.85-2.64-4.12-4.45-6.96,5.31-4.82,11.43-6.19,18.4-3.99,12.7,4,21.31,12.66,24.89,25.75,1.21,4.45,1.61,9.1,2.43,13.98,5.03,1.37,9.86,2.61,14.62,4.07,12.48,3.82,18.52,13.63,18.39,24.11-5.05,0-9.93.09-14.8-.05-.97-.03-2.02-.81-2.87-1.54-3.53-3.01-3.79-11.12-1.21-15.46Z"/>
      <path class="cls-1" d="m37.86,125.98c-5.98,13.64-11.06,26.98-8.5,42.11,6.37-17.2,16.37-31.53,31.09-42.31.36,3.14-.6,5.74-2.92,7.81-12.55,11.16-21.4,24.66-25.8,40.95-.57,2.1-.76,4.29-1.11,6.34-10.6-11.17-6.04-49.06,7.24-54.9Z"/>
      <path class="cls-1" d="m150.69,281.02c-5.63-1.24-10.59-3.47-15.13-6.61-16.5-11.4-31.89-24.09-44.25-40.02-4.07-5.24-7.34-11.1-10.61-16.95,19.86,24.95,43.68,45.43,69.99,63.57Z"/>
      <path class="cls-1" d="m58.38,71.32c1.3,1.74,2.46,3.29,3.6,4.82-6.09,8.61-14.93,8.78-22.32,3.63-7.6-5.3-8.72-17.77-2.53-25.53,1.63.72,3.3,1.46,4.62,2.04-1.27,2.85-2.95,5.43-3.58,8.24-1.7,7.51,5.15,14.98,12.81,14.12,4.03-.45,6-3.46,7.4-7.32Z"/>
      <path class="cls-1" d="m108.47,55.81c3.88-2.28,4.67-2.04,6.27,1.79,3.64,8.69,2.43,15.74-3.65,21.6-4.45,4.28-9.64,5.28-15.21,2.94-3.06-1.29-5.79-3.39-8.8-5.2,1.56-2.32,2.76-4.11,3.99-5.94,3.14,6.71,8.89,9.18,14.72,6.38,7.5-3.6,8.38-10.53,2.68-21.56Z"/>
      <path class="cls-1" d="m66.28,136.96c-9.95,24.07-3.32,46.05,8.8,67.85-17.11-15.28-24.47-47.69-8.8-67.85Z"/>
      <path class="cls-1" d="m45.2,166.66c1.77,19.71,10.26,37.17,21.76,53.12-13-5.83-26.52-34.29-21.76-53.12Z"/>
      <path class="cls-1" d="m35.98,192.01c5.5,15.91,13.99,30.13,24.33,43.46-11.56-5.82-24.69-25.78-24.33-43.46Z"/>
      <path class="cls-1" d="m45.26,336.36c-.74.62-1.04,1.04-1.44,1.19-7.55,2.9-15.11,5.78-22.56,8.62,1.19-5.08,10.33-10.41,24.01-9.82Z"/>
      <path class="cls-1" d="m20.8,177.69c2.12,11.29,5.52,21.83,11.05,31.38-6.89-3.78-12.74-16.99-11.05-31.38Z"/>
      <path class="cls-1" d="m85.82,345.62c-8.49,2.93-16.83,5.8-25.51,8.8,6.74-8.56,15.86-9.38,25.51-8.8Z"/>
      <path class="cls-1" d="m51.46,66.75c-.07,1.31-.91,2.48-2.74,2.62-1.78.13-3.65-1.84-3.45-3.66.17-1.51.77-2.93,2.61-2.96,1.97-.04,3.6,1.66,3.58,4.01Z"/>
      <path class="cls-1" d="m102.03,68.49c-1.88,0-2.56-1.3-2.72-2.82-.18-1.75,1.64-3.55,3.35-3.46,1.54.08,2.68.8,2.76,2.48.1,1.89-1.66,3.79-3.39,3.8Z"/>
      <path class="cls-1" d="m119.12,136.17c2.46,5.35,4.87,10.73,7.4,16.04,4.8,10.05,11.2,18.91,20.54,25.16,4.77,3.19,10.15,5.47,14.83,7.95-3.17.92-9.2.09-14.2-2.54-9.31-4.88-15.86-12.48-20.71-21.64-3.89-7.35-5.85-15.37-7.83-23.38-.11-.46-.26-.91-.39-1.36.12-.08.24-.16.35-.23Z"/>
      <path class="cls-1" d="m134.75,182.57c-12.49-.92-20.54-7.58-26.4-17.44-5.25-8.83-7.5-18.46-7.66-28.67,4.52,20.21,14.67,36.27,34.06,46.11Z"/>
    </g>
  </g>
</svg>