<?xml version="1.0" encoding="UTF-8"?>
<svg id="Capa_2" data-name="Capa 2" xmlns="http://www.w3.org/2000/svg" viewBox="0 0 224.94 368.28">
  <defs>
    <style>
      .cls-1 {
        stroke-width: 0px;
      }
    </style>
  </defs>
  <g id="Capa_1-2" data-name="Capa 1">
    <g>
      <path class="cls-1" d="m80.95,82.12c1.19,3.09,2.2,5.88,3.36,8.6.37.87,1.01,1.83,1.79,2.29,20.13,11.83,40.05-4.57,41.77-21.29.52-5.03.08-10.17.08-15.24,4.43.95,4.56,4.71,4.79,8.09,1.13,16.73-9.25,34.91-30.38,36.68-6.37.53-12.35-1.24-18.16-3.99-1.59,7.13-5.79,12.82-9.95,19.02-1.67-3.28-3.34-6.27-4.74-9.4-1.38-3.07-2.47-6.27-3.51-8.94-5.29,1.22-10.55,3.08-15.92,3.55-12.85,1.13-27.36-8.57-31.38-22.88-1.69-6.02-2.12-12.07-.66-18.25.56-2.38,1.6-3.11,4.01-2.47,0,3.34.13,6.74-.02,10.13-.62,14.05,11.82,27.82,24.73,29.07,6.63.64,12.69-1.03,18.15-4.8.46-.32.78-.97.99-1.53,1.05-2.81,2.05-5.65,3.16-8.74-9.48-20.59-27.03-33.2-48.12-41.92-4.29,6.08-7.45,13.22-9.57,20.84-2.15,7.73-3.34,15.65-2.21,23.6,1.96,13.85,9.6,24.09,21.55,31.02,3.86,2.24,8.24,3.57,12.25,5.26-2.09,2.96-2.53,3.2-6.56,1.95-2.15-.67-4.25-1.55-6.27-2.56-2.02-1.01-3.9-2.28-5.97-3.52-7.1,15.12-9.01,30.93-6.55,47.38-4.25-7.93-5.6-16.39-4.8-25.23.8-8.82,4.03-16.93,7.34-24.36-3.74-4.95-7.22-9.56-10.53-13.94-.49,3.5-.98,7.53-1.64,11.53-2.06,12.43-3.55,24.88-3.06,37.54.54,13.74,3.42,26.99,7.98,39.87,10.99,31.01,30.96,54.99,58.05,73.27,5.95,4.02,12.06,7.81,18.09,11.7.17-.13.34-.26.51-.39-6.56-14.43-13.13-28.87-19.69-43.3.15-.11.3-.21.45-.32,1.45,1.95,3.02,3.82,4.32,5.86,8.42,13.23,15.18,27.3,21.06,41.81,1.64,4.05,3.5,8.02,5.01,12.11.51,1.39.74,3.19.33,4.58-3.93,13.25-7.96,26.46-12.09,39.65-1.88,5.99-2.41,6.25-9.34,6.67-4.86.3-9.77.29-14.63,0-4.49-.28-8.05,1.31-11.24,4.21-3.12,2.84-6.27,5.65-9.59,8.31,3.23-6.37,6.47-12.75,13.41-15.98,1.34-.62,2.98-.79,4.49-.81,5.75-.09,11.5-.04,17.78-.04-2.7-2.22-5.05-3.92-8.22-3.97-5.85-.08-11.71-.16-17.56-.23-.54,0-1.07,0-2.34,0,12.4-18.17,24.47-35.85,36.37-53.29-10.73-7.13-20.98-13.94-31.26-20.76,1.16,2.67,2.43,5.46,3.59,8.29,2.54,6.22,5.1,12.43,7.45,18.71.42,1.11.2,2.73-.29,3.87-3.13,7.28-6.37,14.52-9.68,21.72-2.29,5-4.77,9.92-7.12,14.9-1.96,4.16-4.91,6.3-9.79,5.93-4.77-.36-9.61.18-14.38-.15-4.65-.32-8.11,1.53-11.29,4.59-3.6,3.46-7.34,6.77-11.27,9.9,3.82-7.7,8.16-14.91,16.58-18.43.79-.33,1.74-.34,2.62-.35,5.94-.03,11.88-.12,17.81.04,2.63.07,4.34-.87,5.46-3.16,3.36-6.83,6.82-13.61,10.09-20.49,2.43-5.12,4.63-10.34,6.86-15.55.28-.65.39-1.6.14-2.23-4.27-10.66-8.59-21.31-12.98-31.92-.48-1.15-1.35-2.22-2.26-3.1-14.87-14.43-27.41-30.53-35.74-49.66-5.98-13.73-10.23-28-11.89-42.89-1.37-12.32-.75-24.64,1.1-36.92,1.31-8.74,2.7-17.49,3.35-26.29.5-6.69-.19-13.47-.19-20.21-.01-13.68,3.7-26.22,11.81-37.35.14-.19.24-.4.44-.75-5.73-4.08-10.41-9.01-12.84-15.75C2.03,14.7,1.45,7.94,2.76.92c3.39,2.98,6.63,6,10.06,8.79,8.24,6.73,17.75,11.31,27.28,15.82.6.28,1.57.18,2.22-.1,21.56-9.19,43.13-9.08,64.71-.13,1.41.58,2.46.49,3.82-.18,8.73-4.31,17.63-8.33,25.19-14.59,4.04-3.35,7.79-7.04,11.62-10.54,2.31,14.85-1.55,27.84-15.31,37.64,6.63,9.31,10.96,19.65,12.34,30.97.85,6.99.82,14.1.91,21.16.11,9.26-.33,18.58,1.94,27.63,1.31,5.22,3.26,10.33,5.42,15.27.92,2.11,3.14,3.65,4.73,5.48,10.99,12.76,17.65,27.8,22.98,43.56,6.6,19.49,11.22,39.51,16.03,59.47,6.51,26.99,13.62,53.79,23.42,79.81.34.9.66,1.81,1.13,3.1-7.28-2.24-13.2-6.45-19.74-10.32,7.79,18.14,15.46,35.98,23.42,54.51-3.23-.57-5.89-.92-8.49-1.53-7.85-1.84-15.13-5.18-22.34-8.71-2.09-1.02-4.38-1.63-6.58-2.42-12.7-4.55-22.01-13.14-29.02-24.43-6.12-9.85-12.18-19.72-18.2-29.63-.8-1.32-1.6-1.88-3.22-1.92-5.2-.13-10.39-.42-15.57-.83-1.75-.14-2.7.22-3.57,1.9-5.93,11.52-12.01,22.96-18.03,34.42-.22.42-.42.84-.73,1.43,4.17,0,8.1-.02,12.04.01.97,0,1.97.03,2.89.28,5.99,1.63,12.96,9.96,13.73,16.43-3.54-3.33-7.04-6.6-10.5-9.9-2.05-1.95-4.4-2.86-7.27-2.78-4.22.11-8.46,0-12.68-.01-3.65,0-4.47-1.36-2.77-4.6,5.11-9.76,10.29-19.49,15.29-29.31,3.01-5.92,5.71-11.99,8.61-17.96.59-1.22.6-2.11-.27-3.26-6.44-8.56-12.8-17.17-19.18-25.77-.13-.18-.2-.41,0-.9,2.62,2.65,5.34,5.22,7.85,7.97,4.77,5.22,9.36,10.6,14.17,15.78,2.18,2.35,2.35,4.82,1.35,7.61-.46,1.28-.9,2.56-1.42,4.05,5.03.23,9.82.45,15.02.69-3.54-6.29-7.52-11.88-8.13-19.68,1.4,1.89,2.48,3.18,3.37,4.58,10.04,15.81,20.08,31.61,30.06,47.46,6,9.52,13.52,17.41,23.64,22.6.33.17.68.31,1.14.52-11.21-18.14-21.44-36.6-29-56.49,2.13,3.26,4.38,6.45,6.36,9.81,7.95,13.47,16.1,26.83,23.61,40.54,4.14,7.55,10.97,10.77,18.65,14.23-12.23-18.08-19.77-37.92-28.93-56.95.17-.11.35-.21.52-.32,2.94,4.75,6.04,9.41,8.8,14.27,6.83,12.05,13.49,24.2,20.28,36.28,1.15,2.04,2.59,3.92,3.96,5.83,2.7,3.76,2.72,3.74,7.75,4.91-3.39-7.48-6.79-14.78-10.02-22.16-4.32-9.86-8.5-19.77-12.8-29.64-.43-1-1.08-2.07-1.93-2.69-17.22-12.62-33.04-26.82-47.86-42.16-14.91-15.44-30.16-30.57-44.65-46.39-12.93-14.12-22.22-30.47-25.93-49.56-2.77-14.2-.36-27.35,8.86-38.72,6.44-7.94,15.17-12.27,25.18-13.95,13.02-2.19,24.45,2.01,35.16,8.98.34.22.67.44,1.16.76-1-4.02-2.15-7.82-2.86-11.71-.68-3.74-1.15-7.55-1.24-11.34-.18-7.96-.05-15.94-.06-23.91,0-14.03-4.36-26.74-11.71-38.54-.13-.2-.28-.38-.52-.7-9.89,5.31-20.69,8.69-29.36,16.07-4.82,4.11-8.79,8.86-12.01,14.29-2.27,3.83-4.57,7.63-6.58,10.98Zm96.18,102.97c-2.56-6.46-4.76-12.35-7.22-18.13-5.47-12.85-12.76-24.45-23.83-33.29-10.71-8.55-22.55-13.76-36.65-11.55-10.4,1.63-19.07,6.3-24.88,15.33-7.07,11-7.71,22.95-4.64,35.33,3.81,15.38,11.73,28.68,21.99,40.42,11.28,12.9,23.12,25.32,35.07,37.61,15.92,16.37,31.87,32.76,50.07,46.69,8.41,6.44,17.15,12.43,25.75,18.63.19-.2.37-.4.56-.6-.32-1.06-.77-2.1-.94-3.18-.63-4.02-2.75-6.53-6.43-8.56-8.73-4.83-15.92-11.73-23.1-18.57-23.03-21.96-44.89-44.96-63.25-71.07-.37-.52-.83-1.02-1.34-1.39-8.99-6.55-15.42-15.22-20.7-24.86-5.12-9.36-7.27-19.51-8.17-30-.24-2.78-.41-5.57-.62-8.35,1.13,8.09,3.56,15.79,6.51,23.32,5.93,15.1,14.66,28.16,28.08,37.68,3.85,2.73,8.11,4.68,12.71,5.92-10.9-11.87-18.96-25.21-22.67-40.98,1.42,1.73,2.67,3.57,3.81,5.48,5.81,9.76,11.45,19.63,19.09,28.15,7.06,7.88,15.34,13.83,26.15,16.45-10.79-13.55-19.66-27.79-24.53-44.8.53.66.79.92.98,1.23,4.16,6.58,8.32,13.15,12.46,19.74,6.84,10.89,14.04,21.51,24.18,29.7,2.46,1.99,5.12,3.72,7.69,5.57.14-.17.29-.33.43-.5-9-14.18-14.91-29.63-19.05-45.83.4.32.68.7.89,1.12,6.01,11.93,11.93,23.91,18.08,35.76,2.07,3.99,4.74,7.66,7.13,11.48.18-.1.36-.2.53-.3-.46-1.95-.96-3.88-1.36-5.84-2.78-13.8-5.81-27.54-10.66-40.81-.64-1.74-1.57-2.78-3.16-3.66-4.1-2.27-8.4-4.35-12.08-7.2-10.71-8.33-15.42-20.65-20.81-32.49,9.48,13.51,19.23,26.72,33.92,36.37ZM45.7,29c16.52,13.52,26.77,30.38,28.32,52,1.2.18,2.35.35,3.73.56-1.68-23.14,10.57-39.05,26.66-53.14-19.55-6.42-39.16-6.92-58.71.59Zm163.07,271.94c-1.13-3.44-2.2-6.9-3.45-10.3-.3-.81-1.14-1.48-1.86-2.06-3.92-3.14-8.25-5.87-11.75-9.41-14.46-14.66-25.9-31.57-36.07-49.39-.52-.91-1.38-1.74-2.27-2.29-4.39-2.72-8.84-5.34-13.28-7.99-.6-.36-1.24-.84-1.89-.9-4.22-.42-8.45-.73-12.35-1.05,25.72,29.11,50.85,59.63,82.93,83.4Zm-118.64-21.73c-.24.16-.48.31-.72.47.31,4.83-1.7,8.79-4.44,12.55-4.48,6.16-8.89,12.38-13.23,18.65-3.86,5.57-7.58,11.23-11.87,17.6,5,0,9.34-.47,13.52.13,4.22.6,7.86,2.99,11,7,3.46-11.45,6.78-22.17,9.94-32.94,3.09-10.51,3.02-10.53-1.6-20.43-.07-.15-.13-.31-.23-.43-.79-.87-1.59-1.73-2.38-2.6ZM143.63,10.75c-4.61,3.25-9.01,6.71-13.74,9.61-4.75,2.91-9.83,5.3-14.8,7.84-18.32,9.35-29.7,23.82-32.75,44.45.48-.6.83-1.28,1.2-1.94,3.36-5.97,6.9-11.91,12.33-16.16,4.95-3.87,10.4-7.14,15.76-10.47,7.08-4.4,14.58-8.17,21.35-12.99,6.78-4.83,9.8-12.19,10.67-20.34Zm59.51,273.52c-3.14-11.7-6.54-23.48-9.39-35.38-1.15-4.82-4.31-7.04-8.32-8.41-5.75-1.96-11.18-4.52-15.64-8.59-3.13-2.85-6.65-2.58-10.41-2.98,12.01,18.85,30.46,45.35,43.76,55.36ZM6.55,10.35c.69,9.53,5.04,16.73,12.22,21.93,5.15,3.73,10.87,6.72,16.52,9.7,8.98,4.74,17.37,10.19,23.77,18.24,3.2,4.03,6.29,8.15,9.38,12.16-.79-2.68-1.5-5.58-2.5-8.37-5.41-15.15-14.45-27.31-29.12-34.65-10.59-5.3-21.13-10.67-30.26-19Zm68.26,97.18c1.42-2.61,2.74-4.66,3.68-6.86,1.76-4.12,2.57-8.39.48-12.67-1.64-3.36-5.92-3.62-7.83-.41-.71,1.19-1.12,2.7-1.21,4.09-.38,5.66,2.36,10.41,4.88,15.86Z"/>
      <path class="cls-1" d="m37.86,125.98c-5.98,13.64-11.06,26.98-8.5,42.11,6.37-17.2,16.37-31.53,31.09-42.31.36,3.14-.6,5.74-2.92,7.81-12.55,11.16-21.4,24.66-25.8,40.95-.57,2.1-.76,4.29-1.11,6.34-10.6-11.17-6.04-49.06,7.24-54.9Z"/>
      <path class="cls-1" d="m150.69,281.02c-5.63-1.24-10.59-3.47-15.13-6.61-16.5-11.4-31.89-24.09-44.25-40.02-4.07-5.24-7.34-11.1-10.61-16.95,19.86,24.95,43.68,45.43,69.99,63.57Z"/>
      <path class="cls-1" d="m58.38,71.32c1.3,1.74,2.46,3.29,3.6,4.82-6.09,8.61-14.93,8.78-22.32,3.63-7.6-5.3-8.72-17.77-2.53-25.53,1.63.72,3.3,1.46,4.62,2.04-1.27,2.85-2.95,5.43-3.58,8.24-1.7,7.51,5.15,14.98,12.81,14.12,4.03-.45,6-3.46,7.4-7.32Z"/>
      <path class="cls-1" d="m108.47,55.81c3.88-2.28,4.67-2.04,6.27,1.79,3.64,8.69,2.43,15.74-3.65,21.6-4.45,4.28-9.64,5.28-15.21,2.94-3.06-1.29-5.79-3.39-8.8-5.2,1.56-2.32,2.76-4.11,3.99-5.94,3.14,6.71,8.89,9.18,14.72,6.38,7.5-3.6,8.38-10.53,2.68-21.56Z"/>
      <path class="cls-1" d="m66.28,136.96c-9.95,24.07-3.32,46.05,8.8,67.85-17.11-15.28-24.47-47.69-8.8-67.85Z"/>
      <path class="cls-1" d="m45.2,166.66c1.77,19.71,10.26,37.17,21.76,53.12-13-5.83-26.52-34.29-21.76-53.12Z"/>
      <path class="cls-1" d="m35.98,192.01c5.5,15.91,13.99,30.13,24.33,43.46-11.56-5.82-24.69-25.78-24.33-43.46Z"/>
      <path class="cls-1" d="m45.26,336.36c-.74.62-1.04,1.04-1.44,1.19-7.55,2.9-15.11,5.78-22.56,8.62,1.19-5.08,10.33-10.41,24.01-9.82Z"/>
      <path class="cls-1" d="m20.8,177.69c2.12,11.29,5.52,21.83,11.05,31.38-6.89-3.78-12.74-16.99-11.05-31.38Z"/>
      <path class="cls-1" d="m85.82,345.62c-8.49,2.93-16.83,5.8-25.51,8.8,6.74-8.56,15.86-9.38,25.51-8.8Z"/>
      <path class="cls-1" d="m51.46,66.75c-.07,1.31-.91,2.48-2.74,2.62-1.78.13-3.65-1.84-3.45-3.66.17-1.51.77-2.93,2.61-2.96,1.97-.04,3.6,1.66,3.58,4.01Z"/>
      <path class="cls-1" d="m102.03,68.49c-1.88,0-2.56-1.3-2.72-2.82-.18-1.75,1.64-3.55,3.35-3.46,1.54.08,2.68.8,2.76,2.48.1,1.89-1.66,3.79-3.39,3.8Z"/>
      <path class="cls-1" d="m119.12,136.17c2.46,5.35,4.87,10.73,7.4,16.04,4.8,10.05,11.2,18.91,20.54,25.16,4.77,3.19,10.15,5.47,14.83,7.95-3.17.92-9.2.09-14.2-2.54-9.31-4.88-15.86-12.48-20.71-21.64-3.89-7.35-5.85-15.37-7.83-23.38-.11-.46-.26-.91-.39-1.36.12-.08.24-.16.35-.23Z"/>
      <path class="cls-1" d="m134.75,182.57c-12.49-.92-20.54-7.58-26.4-17.44-5.25-8.83-7.5-18.46-7.66-28.67,4.52,20.21,14.67,36.27,34.06,46.11Z"/>
    </g>
  </g>
</svg>