<?xml version="1.0" encoding="UTF-8"?>
<svg xmlns="http://www.w3.org/2000/svg" viewBox="0 0 224.94 224.94">
  <defs>
    <style>
      .cls-1 {
        fill: #fff;
        stroke-width: 0px;
      }
    </style>
  </defs>
  <g>
    <path class="cls-1" d="M193.68,31.26H31.26c-10.59,0-19.23,8.64-19.23,19.23v124.97c0,10.59,8.64,19.23,19.23,19.23H193.68
      c10.59,0,19.23-8.64,19.23-19.23V50.49C212.91,39.9,204.27,31.26,193.68,31.26z M183.93,165.31H41.01V60.24h142.92V165.31z"/>
    <path class="cls-1" d="M62.58,103.83l29.46-14.48c1.19-0.59,1.68-2.03,1.1-3.22c-0.59-1.19-2.03-1.68-3.22-1.1l-27.28,13.4
      L51.81,68.05c-0.5-1.23-1.91-1.81-3.14-1.32c-1.23,0.5-1.81,1.91-1.32,3.14l10.68,26.24c0.13,0.32,0.33,0.61,0.59,0.83
      c0.26,0.23,0.58,0.39,0.92,0.48c0.17,0.05,0.34,0.08,0.51,0.08C60.74,97.51,62.58,103.83,62.58,103.83z"/>
    <path class="cls-1" d="M170.18,131.63l-32.89-16.17c-0.18-0.09-0.36-0.15-0.55-0.2l-52.45-12.7
      c-0.54-0.13-1.1-0.05-1.57,0.22L55.9,117.1c-1.16,0.65-1.57,2.11-0.93,3.27c0.44,0.78,1.25,1.22,2.1,1.22
      c0.4,0,0.8-0.1,1.17-0.29l26.41-14.81l51.02,12.35l32.7,16.08c0.38,0.19,0.79,0.27,1.2,0.27c0.96,0,1.88-0.54,2.33-1.46
      C172.5,133.54,171.87,132.23,170.18,131.63z"/>
    <path class="cls-1" d="M163.65,146.71l-17.39-8.55l-41.63-14.9c-0.29-0.1-0.6-0.15-0.9-0.14c-0.3,0.01-0.6,0.09-0.88,0.22
      l-43.59,20.67c-1.21,0.57-1.73,2.01-1.16,3.22c0.58,1.21,2.02,1.72,3.22,1.15l43.04-20.42l39.94,14.29l17.67,8.69
      c0.33,0.16,0.68,0.24,1.02,0.24c0.95,0,1.86-0.56,2.25-1.49C165.91,148.49,165.14,147.45,163.65,146.71z"/>
  </g>
</svg>