<?xml version="1.0" encoding="UTF-8"?>
<svg id="Capa_2" data-name="Capa 2" xmlns="http://www.w3.org/2000/svg" viewBox="0 0 88.84 73.94">
  <defs>
    <style>
      .cls-1 {
        stroke-width: 0px;
      }
    </style>
  </defs>
  <g id="Capa_1-2" data-name="Capa 1">
    <path class="cls-1" d="m60.48,53.32c-4.02,2.47-6.31,3.17-12.34,3.78.85,3.58,1.69,7.13,2.53,10.7,1.45.08,2.83.21,3.83,1.35,1.17,1.34,1.59,2.97,1.8,4.78-.25,0-.47,0-.69,0-3,0-6-.01-9,0-1.34,0-2.32-.5-2.87-1.76-1.74-4.01-3.48-8.02-5.23-12.04-.08-.19-.16-.37-.22-.52-1.73,1.19-3.43,2.37-5.15,3.53-.42.28-.42.55-.13.9.95,1.19,1.88,2.38,2.85,3.55.12.14.39.24.58.22,1.81-.11,3.18.59,4.12,2.16.71,1.2,1.13,2.48,1.36,3.89-.18.02-.34.04-.5.04-2.54,0-5.09,0-7.63,0-.22,0-.51-.08-.66-.22-2.8-2.71-5.49-5.53-7.73-8.73-.4-.57-.7-1.22-1.05-1.83-.5-.86-.25-1.64.29-2.37.3-.4.63-.78.96-1.15.82-.95,1.25-2.09,1.56-3.29.03-.11.07-.21.16-.43.41,1.83.23,3.37-1.07,4.65-.18.17-.31.39-.48.57-.57.62-.65,1.28-.15,1.97,1.14,1.56,2.22,3.17,3.46,4.64,1.37,1.62,2.88,3.12,4.37,4.64.24.25.67.41,1.02.42,1.2.05,2.41.02,3.77.02-.44-.87-.84-1.65-1.22-2.4.58.02,1.07.31,1.55,1.01.11.15.2.32.28.49q.5,1,1.65.89c-.06-2.06-1.83-3.9-3.85-3.83-.87.03-1.43-.2-1.92-.89-.95-1.34-1.96-2.63-2.94-3.95-.4-.54-.28-1.05.19-1.43.65-.52,1.35-.97,2.02-1.45,1.28-.92,2.56-1.84,3.85-2.77-.62-1.61-1.18-3.12-1.77-4.62-.06-.15-.24-.28-.39-.37-2.06-1.33-4.28-2.27-6.72-2.65-.75-.12-1.28,0-1.77.72-2.16,3.16-4.8,5.86-8.13,7.8-2.65,1.54-5.53,2.34-8.58,2.56-.64.05-1.05.26-1.39.83-.9,1.55-1.49,3.18-1.5,4.99,2.55.45,3.67,1.74,4.07,4.64.07.49.14.99.22,1.55h-.62c-3,0-6-.02-9,.01-.61,0-.99-.25-1.29-.7-.59-.88-.65-1.87-.5-2.88.62-4.11,1.98-8,3.37-11.89.38-1.05.84-2.07,1.28-3.1.25-.59.7-.94,1.35-1.09,1.77-.39,2.99-1.45,3.94-3,1.15-1.89,1.92-3.95,2.84-5.94.94-2.03,1.98-4,2.99-6.02-1.98-.08-3.96-.56-5.88-1.29-5.38-2.05-8.77-5.87-9.93-11.54-1.18-5.79.36-11.04,3.47-15.9C6.26,6.86,9.32,3.78,13.31,1.73,15.61.54,18.06-.16,20.68.03c1.65.12,3.19.59,4.38,1.83,1.17,1.21,1.4,2.84.6,4.11-.78,1.24-2.45,1.84-3.96,1.16-2.25-1-4.3-.6-6.28.6-4.73,2.86-8.01,6.87-9.21,12.33-.84,3.84.03,7.33,2.92,10.13,1.77,1.72,4.02,2.46,6.43,2.71,3.44.36,6.66-.36,9.78-1.88,1.39-.68,2.99-.94,4.51-1.35,4.07-1.1,8.07-2.41,11.82-4.37,2.04-1.07,3.81-2.52,5.49-4.09,1.55-1.45,3.13-2.87,5.02-3.89.02,0,.04-.02.05-.03,2.54-1.55,5.06-1.62,7.63-.02.89.55,1.91.89,2.87,1.33,3.18,1.46,5.75,3.72,8.15,6.2,1.52,1.57,2.86,3.29,3.87,5.15,1.27-.91,2.49-1.84,3.77-2.69.99-.65,1.56-.47,2.12.58.72,1.34.63,2.76.19,4.12-.41,1.27-1.04,2.48-1.54,3.73-.09.23-.13.54-.06.77.29.99.69,1.95.92,2.96.46,1.96-.15,3.76-1.28,5.29-.73.99-.81,1.87-.53,2.97.31,1.27.3,2.58-.2,3.8-.26.64-.71,1.2-1.12,1.77-.41.56-.86,1.09-1.3,1.63-.39.48-.8.95-1.25,1.48,1.99,3.64,3.68,7.56,6.23,11,.25.33.5.48.92.49.93.03,1.87.09,2.8.22,1.05.15,1.9.69,2.54,1.54.95,1.27,1.6,2.66,1.88,4.32-.27,0-.48,0-.7,0-2.88,0-5.75-.01-8.63,0-.98,0-1.86-.24-2.57-.93-2.15-2.09-4.32-4.16-6.4-6.33-3.85-4.01-7.12-8.46-9.93-13.25-.02-.03-.06-.05-.13-.11Zm6.42-24.9c-.68-1.19-1.36-2.48-2.14-3.69-1.33-2.08-2.66-4.19-4.62-5.77-2.15-1.74-4.39-2.34-6.99-.85-1.86,1.06-3.53,2.35-5.07,3.81-2.59,2.44-5.41,4.57-8.79,5.8-2.88,1.05-5.79,2-8.71,2.95-1.52.49-3.12.74-4.59,1.33-2.65,1.06-4.62,3.09-6.48,5.18-2.55,2.86-4.32,6.2-5.73,9.73-.77,1.91-1.62,3.77-2.76,5.49-.96,1.44-2.21,2.49-3.91,2.9-.61.15-.99.45-1.21,1.02-.08.21-.19.41-.28.63-1.61,4.1-2.99,8.26-3.96,12.56-.21.92-.3,1.86.06,2.76.09.23.36.54.55.54,1.83.04,3.66.02,5.65.02-.41-.97-.79-1.86-1.17-2.75,1.61.19,1.8,1.58,2.21,2.74h1.73c-.29-.86-.51-1.68-.83-2.45-.3-.72-.84-1.27-1.64-1.4-.57-.09-1.16-.05-1.74-.08-.75-.04-1.51-.08-2.26-.12-.01-.1-.02-.19-.03-.29.73-.25,1.46-.5,2.23-.77-.03-1.98.71-3.73,1.62-5.47.54-1.03,1.24-1.53,2.39-1.43.3.03.62-.07.93-.11,3.59-.43,6.83-1.74,9.62-4.05,3.36-2.79,5.92-6.23,8.04-10.02.69-1.24,1.38-2.48,2.08-3.72-.34,2.46-1.26,4.68-2.59,6.79,2.47.25,4.69,1.12,6.87,2.28-.83-2.73-.66-4.45.71-6.84.55-.95,1.17-1.87,1.82-2.76,2.43-3.33,4.68-6.76,6.24-10.61.26-.64.53-1.28.79-1.93-.03.98-.16,1.93-.37,2.85-.68,2.93-2.28,5.4-3.96,7.84-1.26,1.83-2.51,3.67-3.69,5.55-1.11,1.75-1.18,3.64-.43,5.56,1.71,4.38,3.39,8.78,5.16,13.14.99,2.44,2.16,4.8,3.25,7.2.23.5.62.82,1.15.83,2.02.03,4.03.01,6.23.01-.57-.97-1.07-1.83-1.57-2.68.97.17,1.85.63,2.14,1.61.32,1.09.97,1.21,1.88,1.08.08-.01.16-.02.36-.05-.27-.68-.49-1.35-.78-1.98-.48-1.04-1.31-1.66-2.47-1.75-1-.07-2-.08-2.99-.12-.22,0-.44-.05-.65-.07-.01-.05-.02-.1-.03-.15.48-.21.96-.42,1.45-.64-.39-1.56-.84-3.09-1.15-4.65-.73-3.62-1.38-7.25-2.1-10.87-.1-.49.11-.68.42-.9,2.95-2.12,5.11-4.86,6.48-8.22.12-.29.26-.58.4-.87.23,1.69-.24,3.19-1.05,4.59-1.15,1.99-2.67,3.66-4.56,4.98-.21.15-.52.42-.51.6.1,1.07.28,2.13.43,3.21,5.88-.12,10.85-2.28,15.25-6.06-.23-.18-.38-.32-.55-.42-.88-.55-1.77-1.09-2.65-1.64-2.24-1.39-3.67-3.31-4.05-5.97-.27-1.86-.09-3.7.23-5.52.08-.45-.05-.72-.28-1.07-.71-1.09-1.48-2.17-2.02-3.34-.64-1.39-.65-2.87.05-4.29.51-1.04,1-1.23,1.99-.62,1.13.7,2.18,1.52,3.27,2.28.16.11.37.24.53.22,2.36-.34,4.71-.7,7.16-1.07Zm-4.12,3.86c-.07.08-.14.16-.21.23-1.47-.35-2.62-1.27-3.8-2.15-1.17-.88-2.37-1.73-3.6-2.63-.69,1.06-.7,2.08-.44,3.1.39,1.55,1.31,2.82,2.33,4,.33.38.39.76.33,1.21-.14,1.05-.36,2.09-.43,3.15-.2,3.16.71,5.82,3.57,7.57,1.44.88,2.84,1.84,4.18,2.71.37-.48.82-1.07,1.28-1.66.07.03.14.06.21.09-.8,1.59-.46,3.03.42,4.44.23.36.44.52.84.43,1.36-.28,2.72-.57,4.08-.83.52-.1.86-.35.94-.79-.61-.65-1.17-1.26-1.75-1.86-.76-.79-1.23-1.64-1.12-2.84.1-1.22,0-2.46-.1-3.68-.04-.48-.19-1.02-.47-1.39-.79-1.03-1.91-1.58-3.16-1.95.12,1.49,1.26,1.85,2.48,2.26-.86.28-1.6.56-2.31.14-.98-.58-1.21-1.63-1.44-2.63-1.48-.36-1.49-.38-1.41-1.46.37.05.73.1,1.09.16,1.66.26,3.24.7,4.63,1.7,1.1.8,1.73,1.84,1.74,3.21.01,1.43,0,2.86,0,4.29h5c-.03-.25-.03-.45-.08-.65-.31-1.39-.6-2.8-.97-4.18-.44-1.66-.04-2.75,1.48-3.53.77-.4,1.58-.71,2.39-1.07-.7-1.74-1.75-3.33-2.77-4.94-1.04-1.63-2.57-2.34-4.35-2.7-2.08-.42-4.18-.44-6.28-.22-1.43.14-2.85.39-4.27.59.69.66,1.33,1.26,1.97,1.87Zm-41.66,1.45c-2.16.43-4.48.54-6.8.15-2.14-.36-4.14-1.12-5.76-2.62-3.33-3.08-4.42-6.97-3.49-11.3,1.32-6.12,4.95-10.61,10.45-13.57,2.02-1.09,4.14-1.46,6.33-.39.22.11.47.15.72.21,1.42.35,2.69-.92,2.35-2.33-.23-.95-.88-1.53-1.7-1.95-1.62-.83-3.34-.93-5.1-.6-3.61.69-6.62,2.48-9.23,5.01C4.7,10.37,1.9,15.14,1.22,20.99c-.38,3.27.09,6.47,1.73,9.35,3.05,5.38,7.99,7.55,13.93,7.85.15,0,.36-.1.46-.21,1.29-1.43,2.57-2.88,3.78-4.25Zm40.4,18.97c.02.08.02.1.03.12,4.25,7.41,9.94,13.62,16.16,19.39.46.43,1,.62,1.65.61,1.56-.03,3.12,0,4.69,0,.2,0,.4-.02.62-.03-.17-1.09-.95-1.71-1.68-2.47,1.4.13,2.2.88,2.73,2.01.1.21.32.45.52.5.37.08.78.02,1.25.02-.35-1.07-.85-1.95-1.57-2.72-.63-.67-1.38-1.05-2.3-1.08-.81-.03-1.62-.11-2.43-.09-.5.01-.82-.16-1.09-.55-.52-.75-1.12-1.46-1.56-2.25-1.66-2.97-3.27-5.96-4.88-8.96-.18-.34-.33-.42-.71-.33-2.18.54-4.11-.03-5.64-1.62-.79-.83-1.31-1.91-1.96-2.87-.39-.58-.78-1.15-1.16-1.73-.94.73-1.8,1.39-2.66,2.06Zm11.43-23.56c-2.6-3.72-5.86-6.88-10-9.09,1.93,2.62,3.7,5.33,5.08,8.27.07.15.3.29.46.31,1.49.19,2.99.35,4.45.51Zm2.7,13.22c.24,1.01.53,2,.7,3.02.49,3.01.59,3.17-1.79,4.99-.02.01-.04.02-.05.04-.39.46-.78.92-1.22,1.45.57.23.98.41,1.41.56,1.25.45,1.6.31,2.21-.91.11-.22.19-.46.27-.69.36-1.19.29-2.42-.04-3.57-.33-1.17-.01-2.03.67-2.97,1.27-1.74,1.76-3.68.86-5.96-.2.47-.46.82-.48,1.19-.09,1.71-.83,2.59-2.53,2.85Zm0-11.65c.96,1.41,1.84,2.73,2.73,4.04,1.44-2.02,2.16-5.59.95-6.76-1.23.91-2.47,1.83-3.68,2.72Zm-8.05,23.24c1.2,1.3,2.63,2.17,4.5,1.93,1.34-.17,2.39-.83,2.93-2.15-.67-.28-1.29-.58-1.93-.8-.3-.1-.67-.15-.97-.08-1.49.33-2.97.72-4.53,1.1Zm7.77-5.62h-3.85c.49.6,1.03,1.27,1.57,1.93.8-.68,1.48-1.25,2.29-1.93Zm1.54-8.82c-.64.53-1.56.75-1.54,1.83,1.14-.11,1.54-.59,1.54-1.83Z"/>
  </g>
</svg>