<?xml version="1.0" encoding="UTF-8"?>
<svg xmlns="http://www.w3.org/2000/svg" viewBox="0 0 224.94 224.94">
  <defs>
    <style>
      .cls-1 {
        fill: #fff;
        stroke-width: 0px;
      }
    </style>
  </defs>
  <g>
    <path class="cls-1" d="M112.47,31.26c-44.83,0-81.21,36.38-81.21,81.21s36.38,81.21,81.21,81.21s81.21-36.38,81.21-81.21
      S157.3,31.26,112.47,31.26z M112.47,178.63c-36.49,0-66.16-29.67-66.16-66.16s29.67-66.16,66.16-66.16s66.16,29.67,66.16,66.16
      S148.96,178.63,112.47,178.63z"/>
    <path class="cls-1" d="M124.5,86.35H66.37c-4.16,0-7.53,3.37-7.53,7.53v37.63c0,4.16,3.37,7.53,7.53,7.53H124.5
      c4.16,0,7.53-3.37,7.53-7.53V93.87C132.03,89.72,128.66,86.35,124.5,86.35z"/>
    <path class="cls-1" d="M97.7,86.35c0-8.16,6.62-14.77,14.77-14.77c8.16,0,14.77,6.62,14.77,14.77"/>
    <path class="cls-1" d="M164.84,120.84c-1.56-1.56-4.1-1.56-5.66,0l-16.13,16.13l-5.49-5.49c-1.56-1.56-4.1-1.56-5.66,0
      c-1.56,1.56-1.56,4.1,0,5.66l8.32,8.32c0.78,0.78,1.8,1.17,2.83,1.17c1.02,0,2.05-0.39,2.83-1.17l18.96-18.96
      C166.41,124.94,166.41,122.4,164.84,120.84z"/>
    <path class="cls-1" d="M166.24,107.38h-19.09c-2.21,0-4,1.79-4,4s1.79,4,4,4h19.09c2.21,0,4-1.79,4-4
      S168.45,107.38,166.24,107.38z"/>
    <path class="cls-1" d="M166.24,94.13h-19.09c-2.21,0-4,1.79-4,4s1.79,4,4,4h19.09c2.21,0,4-1.79,4-4
      S168.45,94.13,166.24,94.13z"/>
    <path class="cls-1" d="M147.15,90.13h19.09c2.21,0,4-1.79,4-4s-1.79-4-4-4h-19.09c-2.21,0-4,1.79-4,4
      S144.94,90.13,147.15,90.13z"/>
  </g>
</svg>