<?xml version="1.0" encoding="UTF-8"?>
<svg id="Capa_2" data-name="Capa 2" xmlns="http://www.w3.org/2000/svg" viewBox="0 0 74.47 66.24">
  <defs>
    <style>
      .cls-1 {
        stroke-width: 0px;
      }
    </style>
  </defs>
  <g id="Capa_1-2" data-name="Capa 1">
    <path class="cls-1" d="m51.74,9.77c13.57.58,19.53,16.88,10.53,26.26,2.13,2.17,4.26,4.35,6.4,6.52,1.57,1.59,3.14,3.19,4.73,4.77,1.01,1.01,1.3,2.2.87,3.52-.44,1.35-1.46,2.1-2.85,2.24-1.17.12-2.14-.41-2.88-1.3-1.48-1.76-2.93-3.54-4.4-5.31-2.03-2.43-4.07-4.85-6.13-7.31-3.6,1.68-7.34,1.89-11.24.87.52.93,1.04,1.77,1.48,2.64,2.49,4.95,3.81,10.16,3.5,15.73-.11,2.05-.65,4-1.99,5.63-1.16,1.41-2.65,2.14-4.48,2.14-11.21.02-22.43.04-33.64.05-1.99,0-3.98.07-5.96-.06-2.92-.19-5.6-2.97-5.65-5.9-.07-4.79-.01-9.58-.01-14.36C.03,32.97.07,20.03,0,7.09-.02,3.65,2.59.01,7.11,0,13.75,0,20.38,0,27.02,0c7.71,0,15.42,0,23.13,0,1.24,0,1.58.33,1.59,1.58,0,2.57,0,5.14,0,7.71,0,.16,0,.32,0,.48Zm-2.47,51.57c-.23,0-.45,0-.67,0-5.7,0-11.4,0-17.1,0-.79,0-1.24-.28-1.34-.92-.37-2.27,1.46-4.4,3.31-4.32.61.03,1.22,0,1.84,0-1.05-1.28-1.81-2.57-2.27-4.06-1.23-4,1.3-7.51,3.93-8.44,1.41-.5,2.8-.65,4.22-.02-.15.51-.28.98-.42,1.47-.13,0-.24,0-.33-.02-3.78-.88-6.63,2.7-5.86,6.04.7,3.05,2.8,4.81,5.58,5.91.18.07.37.13.57.21-.05.24-.09.42-.12.55-2.2,0-4.35-.02-6.5,0-1.27.02-1.97.63-2.26,1.86.02.01.04.03.05.03,5.84,0,11.69-.02,17.53-.01.43,0,.56-.15.61-.56.25-1.99.15-3.98-.16-5.94-.76-4.97-2.6-9.53-5.43-13.69-.14-.21-.35-.41-.58-.53-3.18-1.71-5.46-4.24-6.92-7.53-.66-1.51-.79-3.16-1.23-4.71-.77-2.71-1.77-5.36-2.88-7.95-.77-1.8-2.24-3.09-4.19-3.49-2.79-.57-5.61-.95-8.46-1.42,0,1.03,0,2,0,2.97.01,1.39.02,2.8-.56,4.08-.52,1.14-1.22,2.2-1.83,3.3-.4.71-.28.94.55.98.58.03,1.16,0,1.74,0,1.74,0,3.05,1.65,2.77,3.37-.27,1.63-.55,3.27-.65,4.91-.15,2.73.51,5.28,2.11,7.55.89,1.27,1.26,2.71,1.22,4.28-.11,3.79-.2,7.58-.26,11.37,0,.54-.17.7-.7.74-1.14.09-2.5.8-2.72,2.26,1.68,0,3.35-.02,5.03,0,.51,0,.71-.22.75-.68.16-1.61.4-3.21.46-4.82.15-4.12.26-8.24.32-12.37.04-3.36,1.23-6.2,3.62-8.55.09-.09.21-.16.33-.24.6,1.4.63,1.41-.23,2.6-1.09,1.51-1.83,3.15-1.98,5.01-.12,1.48-.11,2.98-.13,4.47-.06,4.64-.12,9.28-.65,13.9-.16,1.35-.74,2.48-2.6,2.41-1.86-.07-3.73,0-5.6-.02-.8,0-1.22-.4-1.15-1.19.19-2,1-3.51,2.94-4.19.21-.07.42-.16.64-.24v-1.09c-.14,0-.26-.02-.38-.02-5.18,0-10.37-.03-15.55.03-.97.01-1.98.25-2.88.62-3.41,1.41-4.12,5.56-1.4,8.02,1.06.96,2.37,1.29,3.79,1.28,8.79-.03,17.57-.04,26.36-.07,3.9-.01,7.79-.03,11.69-.06,1.85-.02,3.5-1.29,4.02-3.1ZM9,1.87v50.99h14.69c.02-.26.06-.5.07-.74.05-2.05.04-4.11.17-6.15.11-1.8-.39-3.36-1.38-4.84-2-2.98-2.31-6.3-1.8-9.76.16-1.06.33-2.12.45-3.19.08-.75-.17-1.1-.91-1.2-.61-.09-1.24-.06-1.85-.09-1.98-.08-3.06-2.03-2.06-3.74.29-.5.64-.96.94-1.46.68-1.13,1.19-2.3,1.14-3.67-.05-1.38-.01-2.77-.02-4.16,0-1.31.79-1.96,2.09-1.75,2.06.33,4.12.63,6.18.95,1.36.21,2.73.4,3.97,1.08,2.35,1.3,3.7,3.35,4.54,5.82.24.71.48,1.42.74,2.18,2-7.16,6.5-11.41,13.92-12.36V1.87H9Zm42.06,9.67c-7.9-.12-13.68,6.7-13.62,13.8.06,7.56,6.15,13.56,13.76,13.63,7.26.07,13.61-5.75,13.61-13.77,0-7.62-6.13-13.69-13.75-13.66ZM7.21,52.96V1.88c-2.42-.23-4.78,1.37-5.29,3.69-.23,1.04-.25,2.14-.25,3.21-.01,15.34,0,30.68,0,46.01,0,.11.04.21.06.34,2-1.45,3.36-1.99,5.48-2.18Zm52.38-14.67c2.04,2.47,4.03,4.87,6.02,7.28,1.43,1.74,2.85,3.5,4.3,5.22.68.8,1.66.84,2.35.2.75-.7.73-1.59-.05-2.38-2.86-2.91-5.71-5.83-8.59-8.72-.89-.89-1.86-1.68-2.83-2.55-.27.22-.73.57-1.2.94Z"/>
  </g>
</svg>