<?xml version="1.0" encoding="UTF-8"?>
<svg id="Capa_2" data-name="Capa 2" xmlns="http://www.w3.org/2000/svg" viewBox="0 0 89.67 92.82">
  <defs>
    <style>
      .cls-1 {
        stroke-width: 0px;
      }
    </style>
  </defs>
  <g id="Capa_1-2" data-name="Capa 1">
    <g>
      <path class="cls-1" d="m69.06,88.97c-1.13.52-2.34.17-3.51.35.52.73,1.03,1.46,1.54,2.18-.04.04-.08.09-.11.13-2.16-1.55-4.16-3.5-7.26-2.92,1.33.78,2.41,1.68,2.97,3.1-.09,0-.15.02-.17,0-1.51-1.47-3.44-1.25-5.28-1.28-3.22-.06-6.45-.03-9.67-.04-.41,0-.82-.06-1.22-.12-.88-.13-1.56-.51-1.68-1.56-2.17-.18-3.3,1.45-4.69,2.57.65-2.7,2.8-3.98,5.77-3.6,1.01.13,2.08-.08,3.11-.18.27-.03.53-.23.84-.37-1.42-2.23-2.78-4.41-4.2-6.55-1.42-2.15-2.87-4.28-4.37-6.38-.99-1.39-1.22-2.81-.51-4.37.24-.54.48-1.07.75-1.66-3.06.62-6.03,1.43-8.93,2.51-2.1.78-3.62,2.11-4.97,3.84-3.11,3.98-6.39,7.83-10.08,11.3-1.89,1.78-4.13,3.06-6.5,4.11-1.04.46-2,1.09-3.05,1.52-2.06.86-4.23,1.25-6.46,1.28-.41,0-.81-.06-1.36-.1,4.98-6.74,9.89-13.39,14.68-19.87-3.94,2-8.06,4.09-12.18,6.17-.05-.06-.09-.12-.14-.18.77-.91,1.52-1.84,2.32-2.72,3.19-3.53,6.42-7.02,9.56-10.58.76-.86,1.31-1.92,1.82-2.96,2.86-5.77,6.5-11.04,10.37-16.15,1.29-1.71,2.7-3.33,4.02-5.03.44-.57.81-1.22,1.15-1.86,2.54-4.8,5.85-9.03,9.5-13.02,1.51-1.65,3.04-3.29,4.58-4.92,2.05-2.17,3.32-4.76,4.25-7.56,1.13-3.38,2.52-6.65,4.8-9.45C57.37,1.35,60.81-.13,64.99,0c2.62.09,5.07.8,7.39,1.99.31.16.69.22,1.04.22,4,.02,7.9.65,11.63,2.13,2.05.81,3.78,2.02,4.62,4.2-.02.02-.07.07-.08.06-1.46-.73-2.79.13-4.15.39-2.39.44-4.75,1.05-7.15,1.48-2.1.37-3.19,1.73-3.81,3.59-.89,2.65-.61,5.28.2,7.92.68,2.24,1.24,4.51,1.74,6.8.46,2.12.33,4.28.09,6.42-.67,5.79-2.66,11.13-5.7,16.08-2.94,4.78-6.79,8.7-11.39,11.89-.51.35-.85.77-1.09,1.33-1.11,2.62-2.24,5.23-3.4,7.82-.41.92-.37,1.7.22,2.54,2.18,3.07,4.29,6.19,6.47,9.25,1.63,2.3,3.99,2.66,6.59,2.36,1.17-.13,2.37-.34,3.52-.19,1.81.22,3.92,1.97,4.21,3.87-1.93-1.79-3.85-3.46-6.82-2.73,1.31.77,2.41,1.65,2.51,3.36-.18-.19-.3-.32-.42-.45-1.52-1.68-3.36-2.71-5.66-2.8-2.07-.08-3.61-1.14-4.76-2.73-2.28-3.16-4.45-6.4-6.69-9.6-.66-.95-.77-1.89-.31-2.95,1.06-2.44,2.07-4.9,3.11-7.35-.09.05-.23.14-.37.2-1.84.76-3.66,1.6-5.54,2.26-1.01.35-1.5,1.05-1.72,1.92-.21.8-.23,1.69-.12,2.51.08.59.41,1.24.83,1.66,3.4,3.4,6.45,7.1,9.45,10.85.97,1.22.92,1.83-.43,2.62-.73.43-1.56.68-2.48,1.07,1.14-.08,2.16-.08,3.15-.25,1.85-.31,3.53,0,5.08,1.05.14.1.33.18.5.18,1.27.01,2.55,0,3.82,0Zm-25.55-24.04c.06.03.12.06.18.09-.68,1.75-1.34,3.51-2.06,5.25-.56,1.33-.32,2.44.49,3.64,2.85,4.18,5.6,8.44,8.39,12.66.38.57.3,1.12-.22,1.43-.62.38-1.33.69-2.04.83-.79.16-1.63.11-2.54.16.65.81,1.52.78,2.34.82,3.61.16,7.22.28,10.82.43.46.02.92.1,1.38.16-1.02-.75-2.04-1.4-3.33-1.4-2.03,0-3.7-.82-4.88-2.45-1-1.38-1.93-2.83-2.75-4.32-1.32-2.39-2.52-4.84-3.77-7.27-.44-.86-.25-1.65.22-2.46,2.82-4.88,6.22-9.34,9.92-13.58.92-1.05,1.86-2.08,2.8-3.12-1.88,3.85-4.74,6.99-7.28,10.39.1.01.15.03.19.02.32-.11.65-.21.96-.33,5.58-2.26,10.17-5.89,14.08-10.39,3.21-3.69,5.42-8,7.06-12.57,2.12-5.88,2.65-11.89,1.02-18.01-.56-2.08-1.23-4.16-1.53-6.28-.31-2.18.02-4.37,1.24-6.32.14-.22.27-.43.41-.65-.08-.04-.15-.07-.23-.11-3.68,2.61-4.5,6.51-4.65,10.8-.52-2.01-.65-3.93-.05-5.87,1.09-3.49,3.13-5.95,6.92-6.69,3.01-.59,6-1.3,9.09-1.97-.28-.07-.47-.15-.67-.15-2.35-.1-4.7-.34-7.05-.25-2.29.09-4.63.3-6.76,1.79.64-1.24,1.36-2.14,2.64-2.38,3.3-.62,6.63-.69,9.96-.32,1.26.14,2.5.44,3.75.67-4.35-3.22-9.42-3.66-14.64-3.97.06.57.1.93.16,1.41-.82-1.03-1.6-1.87-2.75-2.35-1.82-.76-3.7-1.14-5.65-1.2-3.83-.12-6.83,1.56-9.2,4.45-1.98,2.41-3.37,5.17-4.25,8.13-1.25,4.18-3.54,7.64-6.56,10.73-3.87,3.96-7.47,8.15-10.51,12.79-.19.29-.39.57-.59.85,2.14-1.93,4.23-3.89,6.3-5.85,2.6-2.46,5.37-4.68,8.49-6.45,2.87-1.63,5.89-2.5,9.23-2.04,5.16.72,9.93,5.78,8.6,12.23-.77,3.74-2.44,7.09-4.44,10.29-2.31,3.71-5.36,6.75-8.73,9.49-3.05,2.48-6.1,4.95-9.54,6.88-1.25.7-2.6,1.21-3.9,1.81.02-.22.1-.29.19-.36,2.7-1.91,5.42-3.8,8.11-5.73,4.33-3.1,8.33-6.54,11.56-10.83,2.73-3.62,4.94-7.46,5.77-12.01.91-5.02-2.96-10.38-8.79-10.8-2.81-.2-5.29.74-7.67,2.08-2.66,1.51-4.97,3.48-7.24,5.5-4.29,3.79-8.48,7.68-12.06,12.16-1.53,1.91-2.97,3.88-4.54,5.94,5.29-1.69,14.39-8.3,16.08-11.55-.92-.07-1.89-.15-2.86-.23,0-.06-.01-.13-.02-.19,3.25-.12,5.6-1.93,7.89-3.97-.76.95-1.52,1.91-2.3,2.88,5.01-1.15,9.51-3.2,13.09-7.01-.57.94-1.17,1.85-1.9,2.65-1.55,1.69-3.47,2.91-5.61,3.69-1.07.39-1.57,1.05-1.99,2.06-2.36,5.75-6.39,9.78-12.4,11.68-.57.18-1.17.43-1.63.81-3.28,2.7-6.52,5.45-9.8,8.15-2.97,2.46-6.11,4.72-8.79,7.53-.96,1.01-1.92,2.02-2.88,3.03-.11.12-.2.25-.37.44,10.38-6.08,20.2-12.78,29.61-20.14-.52,0-.99,0-1.47,0-.45,0-.89,0-1.45,0,7.46-1.48,12.04-6.37,15.82-12.44h-3.4c4.31-.81,7.9-2.55,9.88-6.78.04.12.07.17.06.2-.75,2.58-1.95,4.82-4.6,5.93-.51.21-.82.57-1.09,1.05-2.08,3.72-4.78,6.9-8.22,9.42-1.27.93-2.68,1.66-3.93,2.6-2.96,2.22-5.81,4.59-8.8,6.76-6.67,4.83-13.52,9.4-20.63,13.58-2.55,1.5-4.99,3.09-6.88,5.51.17-.08.31-.14.44-.21,5.92-3.18,11.86-6.33,17.75-9.56,7.04-3.86,14.02-7.83,20.48-12.63,1.96-1.46,3.84-3.02,5.72-4.49-2.09.39-4.17.78-6.25,1.17-.02-.08-.04-.15-.06-.23,4.71-.98,8.79-3.14,12.21-6.48,3.44-3.35,5.85-7.31,6.6-12.15.07,1.72-.21,3.4-.76,5.02-1.16,3.44-3.31,6.22-6.01,8.59-1.17,1.02-2.46,1.9-3.57,2.98-3.97,3.88-8.27,7.34-12.92,10.35-7.3,4.72-14.86,8.99-22.58,12.98-.23.12-.45.3-.61.51-4.08,5.53-8.15,11.06-12.22,16.6-.79,1.08-1.59,2.15-2.44,3.31.19-.02.28-.03.36-.04,1.67-.32,2.97-1.27,4.07-2.49,2.36-2.61,4.72-5.22,6.96-7.93,2.72-3.28,5.33-6.66,8.05-10.08-.44.11-.79.19-1.14.28-.01-.04-.03-.07-.04-.11,2.49-1.43,4.98-2.85,7.47-4.28.04.07.08.13.12.2-1.47,1.1-2.95,2.2-4.42,3.31-.29.22-.6.44-.82.71-1.22,1.51-2.39,3.06-3.61,4.57-3.25,4.01-6.51,8.01-9.81,11.98-.94,1.13-2.03,2.14-2.97,3.12,1.57-.3,3.81-1.68,5.16-3.07,3-3.1,5.87-6.34,8.79-9.52.35-.38.68-.77,1.02-1.16-2.44,3.66-4.87,7.32-8.1,10.34.13,0,.23-.05.31-.11,1.89-1.18,3.62-2.53,5.08-4.24,4.31-5.05,8.66-10.06,13-15.09-.04-.05-.09-.09-.13-.14-.75.4-1.49.82-2.25,1.21-.75.38-1.51.74-2.28,1.08-.76.34-1.53.64-2.3.95,7.65-5.43,15.77-10.08,23.86-14.78,0,.1-.03.16-.07.2-3.86,3.04-7.82,5.95-12.19,8.2-2.38,1.22-3.49,3.48-5.09,5.36,3.07-1.49,6.32-2.32,9.64-2.92.83-.15,1.49-.43,1.89-1.24.21-.42.56-.77.85-1.15Zm3.95-27.54c-1.49.35-3.08.71-4.66,1.1-.22.05-.46.2-.62.37-.68.74-1.34,1.5-2.01,2.25-4.24,4.71-9.14,8.44-15.36,10.17-.37.1-.76.41-1,.73-2.54,3.33-4.62,6.94-6.54,10.65-.06.11-.11.23-.17.35.22-.08.34-.21.48-.32,3.93-3.24,7.85-6.49,11.78-9.73,1.61-1.33,3.19-2.73,5.27-3.31.48-.13.92-.4,1.37-.62,5.2-2.56,8.74-6.76,11.45-11.62Zm.62,33.5c-.06.02-.13.03-.19.05-.46.78-.96,1.55-1.36,2.36-.15.29-.18.73-.07,1.03.33.89.7,1.79,1.16,2.61,1.62,2.85,3.27,5.69,4.95,8.5.67,1.11,1.68,1.78,3.04,1.48.95-.21,1.87-.53,2.79-.84.23-.08.41-.32.62-.49-.13-.2-.2-.35-.3-.46-2.82-3.3-5.6-6.63-8.5-9.86-1.15-1.28-2.38-2.42-2.15-4.38Z"/>
      <path class="cls-1" d="m72.39,36.52c-.27-2.17-.56-4.33-1.43-6.36-1.34-3.12-3.41-5.69-5.92-7.94-1.53-1.37-2.93-2.82-3.48-4.88-.14-.53-.21-1.07-.24-1.63.9,2.03,2.22,3.7,3.83,5.19,1.81,1.67,3.54,3.43,4.93,5.5,1.66,2.47,2.54,5.17,2.47,8.16-.02.66-.11,1.31-.16,1.97Z"/>
      <path class="cls-1" d="m62.36,5.67c1.03-.31,2.07-.61,3.09-.95.35-.12.7-.3.99-.52.65-.48,1.36-.64,2.04-.24,1.12.66,2.19,1.42,3.28,2.14l-.09.18c-.54-.14-1.08-.28-1.46-.37-.36.65-.63,1.3-1.06,1.84-.22.28-.7.44-1.09.48-1.08.12-1.94-.72-2.53-2.39h-3.12c-.02-.06-.04-.12-.06-.18Zm6.63.41c0-.59-.66-1.17-1.3-1.16-.57.01-1.04.46-1.02.98.02.57.79,1.39,1.31,1.39.47,0,1.01-.65,1.01-1.21Z"/>
      <path class="cls-1" d="m60.54,56.96c1.48-2.34,2.95-4.56,4.29-6.85,1.33-2.28,2.29-4.74,3.02-7.27-.34,5.76-2.96,10.34-7.32,14.12Z"/>
      <path class="cls-1" d="m62.69,22.15c-3.93-2-6.89-6.37-5.39-10.57.08,4.47,2.55,7.57,5.39,10.57Z"/>
    </g>
  </g>
</svg>