<?xml version="1.0" encoding="UTF-8"?>
<svg xmlns="http://www.w3.org/2000/svg" viewBox="0 0 224.94 224.94">
  <defs>
    <style>
      .cls-1 {
        fill: #fff;
        stroke-width: 0px;
      }
    </style>
  </defs>
  <g>
    <path class="cls-1" d="M182.81,107.59c-3.54-28.16-19.37-49.41-45.88-61.16c-19.4-8.59-39.44-8.74-59.04-0.43
      c-27.51,11.65-43.07,33.68-46.7,62.95c-0.29,2.33-0.44,4.69-0.44,7.05c0,13.3,0,26.6,0,39.9c0,2.63,0.63,4.96,2.53,6.81
      c1.9,1.85,4.2,2.51,6.85,2.21c1.72-0.2,3.3-0.96,4.47-2.13c1.75-1.75,2.16-3.93,2.15-6.32c-0.04-13.19-0.04-26.38,0-39.57
      c0.03-18.7,9.36-33.81,25.43-43.92c16.07-10.11,33.31-10.97,50.3-2.3c17.14,8.73,27.32,23.09,30.18,42.1
      c0.21,1.42,0.33,2.85,0.33,4.29c0.01,13.19,0,26.38,0,39.57c0,2.46,0.44,4.64,2.31,6.39c3.83,3.58,9.83,3.05,13.08-1.05
      c1.09-1.37,1.15-3.08,1.15-4.74c0.01-13.72,0.09-27.44-0.04-41.16C183.45,112.96,183.1,110.26,182.81,107.59z"/>
    <path class="cls-1" d="M164.63,139.5c-4.96-0.11-9.11,3.81-9.32,8.78c-0.53,12.39-5.49,22.46-15.11,30.07
      c-9.65,7.63-20.85,10.31-33.08,8.37c-19.22-3.05-34.82-19.4-36.92-38.71c-0.01-0.08-0.01-0.17-0.02-0.25
      c-0.37-4.75-4.4-8.37-9.09-8.23c-4.47,0.13-8.14,3.83-8.26,8.27c-0.01,0.29-0.01,0.58,0,0.87c1.63,26.21,18.19,47.29,43.36,55.41
      c4.23,1.36,8.57,2.2,12.93,2.49c22.06,1.5,40.36-6.77,53.33-24.51c7.99-10.93,11.97-23.32,11.5-36.93
      C173.84,141.15,168.69,139.6,164.63,139.5z"/>
    <path class="cls-1" d="M112.62,66.29c-4.83,0-8.74,3.92-8.74,8.74v47.38c0,4.83,3.91,8.74,8.74,8.74
      c4.82,0,8.74-3.91,8.74-8.74V75.04C121.36,70.21,117.44,66.29,112.62,66.29z"/>
    <path class="cls-1" d="M146.3,85.62c-4.82,0-8.74,3.92-8.74,8.74v28.06c0,4.83,3.91,8.74,8.74,8.74
      c4.83,0,8.74-3.91,8.74-8.74V94.36C155.04,89.54,151.13,85.62,146.3,85.62z"/>
    <path class="cls-1" d="M78.93,94.36c-4.83,0-8.74,3.92-8.74,8.74v19.31c0,4.83,3.91,8.74,8.74,8.74
      c4.82,0,8.74-3.91,8.74-8.74V103.1C87.67,98.27,83.76,94.36,78.93,94.36z"/>
  </g>
</svg>